<svg width="125" height="54" viewBox="0 0 125 54" fill="none" xmlns="http://www.w3.org/2000/svg">
<path d="M31.4645 51.2178C31.4645 52.4856 30.4538 53.5052 29.2126 53.5052C27.9714 53.5052 26.9607 52.4767 26.9607 51.2178C26.9607 49.9589 27.9714 48.9304 29.2126 48.9304C30.4538 48.9304 31.4645 49.9589 31.4645 51.2178Z" fill="#00AB84"/>
<path d="M38.9745 49.2054C38.9745 50.8456 37.6712 52.1666 36.0577 52.1666C34.4441 52.1666 33.1497 50.8367 33.1497 49.2054C33.1497 47.5741 34.453 46.2443 36.0577 46.2443C37.6624 46.2443 38.9745 47.5741 38.9745 49.2054Z" fill="#FFC300"/>
<path d="M47.1746 44.4711C47.1746 46.5545 45.5167 48.239 43.4687 48.239C41.4207 48.239 39.7628 46.5545 39.7628 44.4711C39.7628 42.3876 41.4207 40.7031 43.4687 40.7031C45.5167 40.7031 47.1746 42.3965 47.1746 44.4711Z" fill="#FF4E2F"/>
<path d="M49.879 24.3808C49.879 24.3276 49.879 24.2744 49.879 24.2212H49.8701C48.6111 10.8693 37.9101 0.443115 24.8774 0.443115C14.2739 0.443115 5.21307 7.34957 1.53376 17.1197C5.05348 9.25571 12.7224 3.79438 21.6148 3.79438C32.9985 3.79438 42.3696 12.7222 43.6108 24.2123H0C0 41.2524 11.1354 52.6272 24.904 52.6804V49.9586C14.9122 49.8965 6.82662 41.6424 6.82662 31.4645H49.6661C49.8346 30.4538 50.0031 29.3988 49.9853 27.1203C49.9853 27.0228 49.9853 26.9341 49.9853 26.8366C49.9853 26.0121 49.941 25.1875 49.879 24.3808Z" fill="#023E72"/>
<path d="M67.5212 26.0037V18.6362H71.7414V20.1434H69.2501V21.4821H70.9789V22.9273H69.2501V24.4877H71.7414V26.0126H67.5212V26.0037Z" fill="#023E72"/>
<path d="M78.241 23.4945C78.241 25.1524 77.3278 26.1454 75.8384 26.1454C74.3489 26.1454 73.4446 25.1701 73.4446 23.4768V19.957H74.9163V23.4945C74.9163 24.4165 75.2266 24.8864 75.865 24.8864C76.5033 24.8864 76.7781 24.4343 76.7781 23.4945V19.957H78.2499V23.4856L78.241 23.4945Z" fill="#023E72"/>
<path d="M82.9577 26.0035V24.6559C82.9577 23.9821 82.6829 23.7782 81.9913 23.7782H81.5214V26.0035H80.1029V19.957H82.0268C83.5694 19.957 84.4294 20.6308 84.4294 21.677C84.4294 22.3331 84.057 22.7941 83.3123 23.0867V23.1044C84.0038 23.2196 84.3496 23.6807 84.3496 24.4963V26.0035H82.9577ZM81.8583 22.6256C82.5764 22.6256 82.9222 22.3774 82.9222 21.872C82.9222 21.3667 82.5942 21.1982 81.8229 21.1982H81.5126V22.6256H81.8583Z" fill="#023E72"/>
<path d="M87.2486 24.8064L86.8407 26.0122H85.3247L87.5234 19.9657H88.8001L90.9988 26.0122H89.4828L89.066 24.8064H87.2486ZM88.7291 23.8135L88.5696 23.317C88.5252 23.1928 88.3923 22.7052 88.1618 21.8541L87.7717 23.3258L87.6032 23.8046H88.738L88.7291 23.8135Z" fill="#023E72"/>
<path d="M94.1193 22.3241C95.1388 22.6965 95.6353 23.3525 95.6353 24.3012C95.6353 25.3917 94.802 26.1453 93.481 26.1453C92.5855 26.1453 91.8939 25.7463 91.6102 25.0725L92.5589 24.2214C92.8692 24.6824 93.2061 24.9129 93.5518 24.9129C93.9508 24.9129 94.1991 24.7001 94.1991 24.3455C94.1991 23.9731 93.9154 23.92 93.543 23.7604L93.144 23.6008C92.2486 23.2462 91.7521 22.5458 91.7521 21.6592C91.7521 20.613 92.5677 19.8683 93.7824 19.8683C94.3852 19.8683 94.9704 20.0456 95.4846 20.3736L95.0147 21.6769C94.5448 21.3666 94.1281 21.207 93.7912 21.207C93.3391 21.207 93.1174 21.3577 93.1174 21.6503C93.1174 21.9251 93.3213 22.0227 93.7114 22.1734L94.1193 22.3241Z" fill="#023E72"/>
<path d="M97.196 26.0035V19.957H98.65V26.0035H97.196Z" fill="#023E72"/>
<path d="M101.619 24.8064L101.211 26.0122H99.6952L101.894 19.9657H103.171L105.369 26.0122H103.853L103.445 24.8064H101.619ZM103.1 23.8135L102.94 23.317C102.896 23.1928 102.763 22.7052 102.532 21.8541L102.142 23.3258L101.974 23.8046H103.109L103.1 23.8135Z" fill="#023E72"/>
<path d="M67.5212 40.7206V33.3531H71.7414V34.8603H69.2501V36.1991H71.2006V37.6442H69.2501V40.7206H67.5212Z" fill="#023E72"/>
<path d="M77.7706 39.9495C77.2387 40.5435 76.4851 40.8716 75.6872 40.8627C74.8981 40.8627 74.1445 40.5347 73.6214 39.9495C73.0983 39.3732 72.8058 38.5931 72.8058 37.7065C72.8058 36.8199 73.0983 36.0397 73.6214 35.4634C74.1356 34.8606 74.8892 34.5237 75.6872 34.5325C76.494 34.5325 77.2032 34.8606 77.7706 35.4546C78.3026 36.0486 78.5951 36.811 78.5951 37.6976C78.5951 38.5842 78.3026 39.3732 77.7706 39.9407V39.9495ZM75.6872 35.8535C74.9424 35.8535 74.3484 36.5894 74.3484 37.671C74.3484 38.7526 74.9247 39.524 75.6872 39.524C76.4496 39.524 77.0525 38.7704 77.0525 37.671C77.0525 36.5717 76.4319 35.8535 75.6872 35.8535Z" fill="#023E72"/>
<path d="M84.7222 38.2119C84.7222 39.8698 83.809 40.8628 82.3196 40.8628C80.8301 40.8628 79.9258 39.8875 79.9258 38.1942V34.6744H81.3975V38.2119C81.3975 39.1339 81.7078 39.6038 82.3462 39.6038C82.9845 39.6038 83.2593 39.1517 83.2593 38.2119V34.6744H84.7311V38.203L84.7222 38.2119Z" fill="#023E72"/>
<path d="M87.9305 40.7209H86.5829V34.6744H87.7354L89.6859 38.1321H89.7657V34.6744H91.1045V40.7209H89.8632L88.0103 37.2987H87.9216V40.7209H87.9305Z" fill="#023E72"/>
<path d="M94.6152 34.6744C96.6632 34.6744 97.8513 35.7738 97.8513 37.6711C97.8513 39.5684 96.6278 40.7209 94.7394 40.7209H93.108V34.6744H94.6152ZM94.6862 39.462C95.7235 39.462 96.3352 38.8325 96.3352 37.7065C96.3352 36.5806 95.7412 35.9334 94.6862 35.9334H94.5709V39.462H94.6862Z" fill="#023E72"/>
<path d="M100.122 39.5152L99.7139 40.7209H98.1979L100.397 34.6744H101.673L103.872 40.7209H102.356L101.939 39.5152H100.122ZM101.602 38.5222L101.443 38.0257C101.398 37.9016 101.265 37.414 101.035 36.5717L100.645 38.0434L100.476 38.5222H101.611H101.602Z" fill="#023E72"/>
<path d="M106.86 35.7738V40.7209H105.388V35.7738H103.863V34.6744H108.402V35.7738H106.86Z" fill="#023E72"/>
<path d="M109.59 40.7209V34.6744H111.044V40.7209H109.59Z" fill="#023E72"/>
<path d="M117.526 39.9495C116.994 40.5435 116.24 40.8716 115.442 40.8627C114.653 40.8627 113.9 40.5347 113.377 39.9495C112.854 39.3732 112.561 38.5931 112.561 37.7065C112.561 36.8199 112.854 36.0397 113.377 35.4634C113.891 34.8606 114.644 34.5237 115.434 34.5325C116.24 34.5325 116.95 34.8606 117.517 35.4546C118.049 36.0486 118.342 36.811 118.342 37.6976C118.342 38.5842 118.049 39.3732 117.517 39.9407L117.526 39.9495ZM115.442 35.8535C114.698 35.8535 114.104 36.5894 114.104 37.671C114.104 38.7526 114.68 39.524 115.442 39.524C116.205 39.524 116.808 38.7704 116.808 37.671C116.808 36.5717 116.187 35.8535 115.442 35.8535Z" fill="#023E72"/>
<path d="M121.15 40.7209H119.803V34.6744H120.955L122.906 38.1321H122.986V34.6744H124.324V40.7209H123.083L121.23 37.2987H121.141V40.7209H121.15Z" fill="#023E72"/>
</svg>
