<svg width="36" height="36" viewBox="0 0 36 36" fill="none" xmlns="http://www.w3.org/2000/svg">
<path d="M19.4394 3L19.4394 1.5L16.4394 1.5L16.4394 3L19.4394 3ZM16.4394 34C16.4394 34.8284 17.111 35.5 17.9394 35.5C18.7678 35.5 19.4394 34.8284 19.4394 34L16.4394 34ZM30 23.5769L31.5 23.5769L31.5 20.5769L30 20.5769L30 23.5769ZM16.7472 33.1556C16.347 33.8809 16.6106 34.7933 17.336 35.1935C18.0613 35.5937 18.9738 35.3301 19.374 34.6048L16.7472 33.1556ZM6 20.5768L4.5 20.5768L4.5 23.5768L6 23.5768L6 20.5768ZM16.4394 3L16.4394 33.8801L19.4394 33.8801L19.4394 3L16.4394 3ZM16.4394 33.8801L16.4394 34L19.4394 34L19.4394 33.8801L16.4394 33.8801ZM30 20.5769C28.1278 20.5769 26.3678 21.5738 24.9039 22.753C23.4043 23.961 22.0008 25.5355 20.8133 27.0548C19.6189 28.5828 18.6056 30.1035 17.8928 31.2378C17.5356 31.8064 17.2517 32.2814 17.0561 32.616C16.9582 32.7834 16.8823 32.9159 16.8302 33.0077C16.8042 33.0536 16.7841 33.0894 16.7702 33.1143C16.7633 33.1267 16.7578 33.1364 16.754 33.1433C16.7521 33.1468 16.7506 33.1495 16.7494 33.1516C16.7489 33.1526 16.7484 33.1534 16.748 33.1541C16.7479 33.1544 16.7477 33.1548 16.7476 33.155C16.7474 33.1553 16.7472 33.1556 18.0606 33.8802C19.374 34.6048 19.3739 34.605 19.3738 34.6051C19.3738 34.6051 19.3738 34.6052 19.3738 34.6051C19.3738 34.6051 19.3739 34.6049 19.3742 34.6045C19.3746 34.6036 19.3755 34.6021 19.3767 34.5999C19.3791 34.5955 19.3832 34.5882 19.3887 34.5784C19.3998 34.5586 19.4169 34.528 19.4399 34.4875C19.4859 34.4064 19.5552 34.2853 19.646 34.13C19.8277 33.8191 20.095 33.3719 20.433 32.834C21.1108 31.7552 22.0648 30.3251 23.1769 28.9023C24.2958 27.4708 25.538 26.0945 26.7858 25.0893C28.0693 24.0554 29.1586 23.5769 30 23.5769L30 20.5769ZM17.9394 33.8801C19.3279 33.3126 19.3277 33.3122 19.3275 33.3117C19.3275 33.3115 19.3273 33.311 19.3271 33.3106C19.3268 33.3098 19.3263 33.3088 19.3259 33.3076C19.3249 33.3052 19.3236 33.3021 19.322 33.2983C19.3189 33.2907 19.3146 33.2803 19.3091 33.2672C19.2981 33.2409 19.2824 33.2037 19.2621 33.1564C19.2214 33.0616 19.1623 32.926 19.0852 32.7553C18.9311 32.4142 18.7048 31.9319 18.4111 31.3552C17.8257 30.2055 16.9634 28.6625 15.8609 27.11C14.7637 25.565 13.3927 23.9591 11.7761 22.7278C10.157 21.4946 8.20931 20.5768 6 20.5768L6 23.5768C7.34827 23.5768 8.67176 24.1344 9.95836 25.1144C11.2474 26.0962 12.4166 27.4411 13.4149 28.8469C14.4078 30.2452 15.1962 31.653 15.7377 32.7164C16.0075 33.2463 16.2137 33.6861 16.3512 33.9905C16.4199 34.1426 16.4714 34.2605 16.5049 34.3387C16.5216 34.3777 16.5339 34.4068 16.5416 34.4252C16.5454 34.4344 16.5481 34.4409 16.5497 34.4447C16.5505 34.4466 16.551 34.4478 16.5512 34.4483C16.5513 34.4485 16.5513 34.4486 16.5512 34.4484C16.5512 34.4484 16.5511 34.4482 16.5511 34.4481C16.551 34.4479 16.5509 34.4476 17.9394 33.8801Z" fill="#0054EA"/>
</svg>
