<svg width="45" height="36" viewBox="0 0 45 36" fill="none" xmlns="http://www.w3.org/2000/svg">
<path d="M2 16.5808L0.499997 16.5808L0.499996 19.5808L2 19.5808L2 16.5808ZM43.3333 19.5808C44.1618 19.5808 44.8333 18.9092 44.8333 18.0808C44.8333 17.2524 44.1618 16.5808 43.3333 16.5808L43.3333 19.5808ZM28.9359 2.00001L28.9359 0.500006L25.9359 0.500006L25.9359 2.00001L28.9359 2.00001ZM42.4489 19.2326C43.1743 19.6328 44.0867 19.3692 44.4869 18.6438C44.8871 17.9185 44.6235 17.006 43.8982 16.6058L42.4489 19.2326ZM25.9358 34L25.9358 35.5L28.9358 35.5L28.9358 34L25.9358 34ZM2 19.5808L43.1734 19.5808L43.1734 16.5808L2 16.5808L2 19.5808ZM43.1734 19.5808L43.3333 19.5808L43.3333 16.5808L43.1734 16.5808L43.1734 19.5808ZM25.9359 2.00001C25.9359 4.32447 27.1787 6.55937 28.7268 8.48119C30.3036 10.4387 32.3698 12.2831 34.381 13.8551C36.4008 15.4338 38.4133 16.7749 39.9165 17.7195C40.6695 18.1927 41.2981 18.5684 41.7403 18.8269C41.9615 18.9562 42.1363 19.0563 42.2569 19.1247C42.3172 19.1589 42.364 19.1852 42.3964 19.2033C42.4125 19.2123 42.4251 19.2193 42.4339 19.2242C42.4383 19.2267 42.4417 19.2286 42.4443 19.23C42.4455 19.2307 42.4465 19.2312 42.4473 19.2317C42.4477 19.2319 42.4481 19.2321 42.4483 19.2322C42.4487 19.2324 42.4489 19.2326 43.1736 17.9192C43.8982 16.6058 43.8983 16.6059 43.8984 16.606C43.8984 16.606 43.8985 16.606 43.8984 16.6059C43.8982 16.6058 43.8978 16.6056 43.8971 16.6052C43.8958 16.6045 43.8936 16.6033 43.8904 16.6015C43.8841 16.598 43.8741 16.5924 43.8605 16.5848C43.8332 16.5696 43.7917 16.5463 43.7367 16.5151C43.6268 16.4528 43.4635 16.3593 43.2543 16.237C42.8359 15.9924 42.235 15.6333 41.5126 15.1794C40.065 14.2698 38.1431 12.9879 36.2285 11.4914C34.3052 9.98813 32.4371 8.30499 31.0631 6.59925C29.6603 4.85781 28.9359 3.29372 28.9359 2.00001L25.9359 2.00001ZM43.1734 18.0808C42.6059 16.6923 42.6055 16.6925 42.605 16.6927C42.6048 16.6928 42.6043 16.693 42.6038 16.6932C42.6029 16.6936 42.6017 16.6941 42.6002 16.6946C42.5974 16.6958 42.5936 16.6974 42.5888 16.6993C42.5794 16.7033 42.5661 16.7088 42.5493 16.7158C42.5156 16.7299 42.4673 16.7503 42.4055 16.7768C42.282 16.8298 42.1041 16.9074 41.8796 17.0088C41.4309 17.2115 40.7949 17.5098 40.0338 17.8974C38.5153 18.6706 36.4804 19.8081 34.4361 21.2598C32.3993 22.7062 30.3016 24.5006 28.7015 26.6015C27.0995 28.7048 25.9358 31.1978 25.9358 34L28.9358 34C28.9358 32.0588 29.7393 30.1901 31.0881 28.4192C32.4388 26.6459 34.2755 25.0534 36.1731 23.7058C38.0632 22.3636 39.9628 21.3001 41.3951 20.5708C42.1093 20.2071 42.7028 19.9288 43.1148 19.7427C43.3207 19.6497 43.4809 19.5798 43.5879 19.534C43.6413 19.511 43.6815 19.4941 43.7073 19.4833C43.7202 19.4779 43.7296 19.474 43.7352 19.4717C43.738 19.4705 43.7399 19.4697 43.7409 19.4693C43.7414 19.4691 43.7416 19.469 43.7416 19.469C43.7416 19.469 43.7415 19.4691 43.7415 19.4691C43.7412 19.4692 43.7409 19.4693 43.1734 18.0808Z" fill="black"/>
</svg>
