<svg width="48" height="48" viewBox="0 0 48 48" fill="none" xmlns="http://www.w3.org/2000/svg">
<path d="M44 22.5808L45.5 22.5808L45.5 25.5808L44 25.5808L44 22.5808ZM2.66666 25.5808C1.83823 25.5808 1.16666 24.9092 1.16666 24.0808C1.16666 23.2524 1.83823 22.5808 2.66666 22.5808L2.66666 25.5808ZM17.0641 8.00001L17.0641 6.50001L20.0641 6.50001L20.0641 8.00001L17.0641 8.00001ZM3.55105 25.2326C2.8257 25.6328 1.91327 25.3692 1.51307 24.6438C1.11288 23.9185 1.37647 23.006 2.10183 22.6058L3.55105 25.2326ZM20.0642 40L20.0642 41.5L17.0642 41.5L17.0642 40L20.0642 40ZM44 25.5808L2.82657 25.5808L2.82656 22.5808L44 22.5808L44 25.5808ZM2.82657 25.5808L2.66666 25.5808L2.66666 22.5808L2.82656 22.5808L2.82657 25.5808ZM20.0641 8.00001C20.0641 10.3245 18.8213 12.5594 17.2732 14.4812C15.6964 16.4387 13.6302 18.2831 11.619 19.8551C9.59919 21.4338 7.58675 22.7749 6.08351 23.7195C5.33049 24.1927 4.70189 24.5684 4.25966 24.8269C4.03848 24.9562 3.86371 25.0563 3.74308 25.1247C3.68275 25.1589 3.63595 25.1852 3.60363 25.2033C3.58747 25.2123 3.57493 25.2193 3.56612 25.2242C3.56173 25.2267 3.55826 25.2286 3.55574 25.23C3.55448 25.2307 3.55346 25.2312 3.55268 25.2317C3.55229 25.2319 3.55188 25.2321 3.55169 25.2322C3.55134 25.2324 3.55105 25.2326 2.82644 23.9192C2.10183 22.6058 2.10166 22.6059 2.10155 22.606C2.1016 22.606 2.10155 22.606 2.10163 22.6059C2.10181 22.6058 2.10222 22.6056 2.10287 22.6052C2.10416 22.6045 2.1064 22.6033 2.10957 22.6015C2.11589 22.598 2.12592 22.5924 2.13954 22.5848C2.16677 22.5696 2.20834 22.5463 2.26328 22.5151C2.37318 22.4528 2.53653 22.3593 2.74567 22.237C3.1641 21.9924 3.765 21.6333 4.48738 21.1794C5.93496 20.2698 7.85693 18.9879 9.77152 17.4914C11.6948 15.9881 13.5629 14.305 14.9369 12.5993C16.3397 10.8578 17.0641 9.29372 17.0641 8.00001L20.0641 8.00001ZM2.82656 24.0808C3.39407 22.6923 3.39449 22.6925 3.39495 22.6927C3.39519 22.6928 3.39572 22.693 3.3962 22.6932C3.39715 22.6936 3.39833 22.6941 3.39976 22.6946C3.40261 22.6958 3.40642 22.6974 3.41116 22.6993C3.42064 22.7033 3.43387 22.7088 3.45073 22.7158C3.48444 22.7299 3.53268 22.7503 3.59447 22.7768C3.71803 22.8298 3.89591 22.9074 4.12036 23.0088C4.56905 23.2115 5.20507 23.5098 5.96621 23.8974C7.48472 24.6706 9.51956 25.8081 11.5639 27.2598C13.6007 28.7062 15.6984 30.5006 17.2985 32.6015C18.9005 34.7048 20.0642 37.1978 20.0642 40L17.0642 40C17.0642 38.0588 16.2607 36.1901 14.9119 34.4192C13.5612 32.6459 11.7245 31.0534 9.82691 29.7058C7.93682 28.3636 6.03724 27.3001 4.60495 26.5708C3.89067 26.2071 3.29719 25.9288 2.88522 25.7427C2.67935 25.6497 2.51911 25.5798 2.41214 25.534C2.35867 25.511 2.31853 25.4941 2.29269 25.4833C2.27977 25.4779 2.27043 25.474 2.26479 25.4717C2.26196 25.4705 2.26006 25.4697 2.2591 25.4693C2.25862 25.4691 2.25838 25.469 2.25837 25.469C2.25837 25.469 2.25854 25.4691 2.25853 25.4691C2.25877 25.4692 2.25906 25.4693 2.82656 24.0808Z" fill="black"/>
</svg>
