<svg width="18" height="20" viewBox="0 0 18 20" fill="none" xmlns="http://www.w3.org/2000/svg">
<path d="M12 5.49998L4.18965 13.4397C3.9152 13.7224 3.76301 14.1017 3.76598 14.4958C3.76894 14.8898 3.92682 15.2668 4.20551 15.5454C4.48419 15.8239 4.86128 15.9816 5.2553 15.9844C5.64932 15.9872 6.02862 15.8349 6.31122 15.5603L15.6215 6.12154C16.1842 5.55887 16.5003 4.79572 16.5003 3.99998C16.5003 3.20424 16.1842 2.44109 15.6215 1.87841C15.0589 1.31574 14.2957 0.999634 13.5 0.999634C12.7042 0.999634 11.9411 1.31574 11.3784 1.87841L2.06809 11.3181C1.23553 12.1643 0.771082 13.3053 0.775916 14.4924C0.78075 15.6795 1.25447 16.8166 2.0939 17.656C2.93332 18.4955 4.07044 18.9692 5.25756 18.974C6.44467 18.9789 7.58561 18.5144 8.43184 17.6819L16.125 9.99998" stroke="white" stroke-width="1.5" stroke-linecap="round" stroke-linejoin="round"/>
</svg>
