<svg width="115" height="90" viewBox="0 0 115 90" fill="none" xmlns="http://www.w3.org/2000/svg">
<path d="M22.1994 46.9362V38.0778C22.1994 37.4811 22.3182 36.9075 22.5339 36.3844V36.3818L22.8465 35.6404L26.0331 28.022C26.0913 27.8838 26.1546 27.7494 26.2204 27.6177C26.7216 26.6257 27.463 25.8184 28.3427 25.2448C29.3399 24.5951 30.5114 24.2425 31.7153 24.2425C31.9413 24.2425 32.17 24.258 32.3986 24.2851C32.418 24.2825 32.4361 24.2787 32.4541 24.2787H35.5322L35.3592 23.8666C32.7344 22.6227 30.8382 20.0975 30.4753 17.0981C29.7067 16.8527 28.8904 16.7855 28.0908 16.8953V16.8798H14.3575V16.9057C11.933 16.7248 9.59246 18.1728 8.75416 20.578C8.64565 20.888 8.53328 21.1954 8.41315 21.4976C8.2956 21.8012 8.16902 22.1009 8.04631 22.4031L7.66138 23.2944C7.53351 23.5915 7.394 23.8808 7.25967 24.1753C6.99616 24.7656 6.70295 25.3366 6.42394 25.9178C6.28186 26.2072 6.13073 26.4887 5.98477 26.7742L5.59855 27.5208C5.39188 27.7662 5.1865 28.0142 4.97595 28.2545C4.61945 28.6614 4.26036 29.0657 3.88447 29.4558C3.69847 29.6508 3.51634 29.851 3.32388 30.0422L2.75037 30.617C2.55403 30.803 2.36028 30.9916 2.16135 31.1737C1.96114 31.3571 1.75964 31.538 1.54909 31.7111C1.29334 31.9229 1.04275 32.1799 0.836078 32.4577C-0.55895 34.3319 -0.167567 36.985 1.70668 38.3788C3.58222 39.7738 6.23277 39.385 7.6278 37.5095C7.79055 37.2899 7.96364 37.0806 8.13543 36.8714C8.30723 36.6621 8.48936 36.4606 8.66374 36.2552L9.21012 35.6546C9.39225 35.4557 9.58471 35.2632 9.77072 35.0682C9.92443 34.9067 10.0807 34.7491 10.237 34.5915V74.0127C10.237 76.5806 12.3179 78.6615 14.8871 78.6615C16.1698 78.6615 17.3336 78.1423 18.1732 77.2988C19.0128 76.4592 19.5372 75.2992 19.5372 74.0127V54.6154C19.5372 54.0664 19.7594 53.5717 20.1159 53.21C20.4776 52.8535 20.9749 52.6313 21.5212 52.6313C22.4461 52.6313 23.2198 53.2578 23.442 54.109C23.4885 54.2718 23.5092 54.4384 23.5092 54.6167V74.7929C23.8192 76.6465 25.2284 78.1216 27.0432 78.5401V51.8938C26.9476 51.8925 26.8546 51.8873 26.7616 51.8796C24.2093 51.6742 22.202 49.5416 22.2007 46.9362H22.1994Z" fill="#0045BF"/>
<path d="M13.6031 7.88449C13.6031 12.2388 17.1333 15.7677 21.4876 15.7677C25.8419 15.7677 29.3708 12.2375 29.3708 7.88449C29.3708 3.53149 25.8406 0 21.4876 0C17.1346 0 13.6031 3.5302 13.6031 7.88449Z" fill="#0045BF"/>
<path d="M113.295 31.7098C113.084 31.5367 112.883 31.3558 112.684 31.1724C112.484 30.9916 112.29 30.8017 112.093 30.6157L111.52 30.0409C111.329 29.851 111.147 29.6495 110.961 29.4545C110.585 29.0644 110.226 28.6601 109.868 28.2532C109.656 28.0129 109.452 27.7649 109.245 27.5195L108.859 26.7729C108.713 26.4875 108.562 26.2059 108.42 25.9165C108.141 25.3353 107.848 24.7643 107.584 24.174C107.451 23.8795 107.312 23.5902 107.184 23.2931L106.796 22.4018C106.676 22.1009 106.549 21.8012 106.431 21.4964C106.312 21.1941 106.199 20.8854 106.09 20.5767C105.808 19.7745 105.326 19.0034 104.666 18.3808C103.496 17.2803 101.972 16.7972 100.486 16.907V16.8798H86.753V16.8953C85.9069 16.7778 85.0609 16.8656 84.2755 17.133C83.7705 19.759 82.0784 21.9601 79.7792 23.1601L79.5441 23.7194H82.3884C82.4078 23.7194 82.4258 23.7245 82.4452 23.7258C82.6713 23.7013 82.8999 23.6858 83.1272 23.6858C84.9304 23.6858 86.7246 24.4724 87.9401 25.994C88.2927 26.4358 88.5756 26.9253 88.7887 27.4149C88.7952 27.4291 88.8042 27.4459 88.8107 27.4601V27.4653L91.9986 35.085L92.3008 35.8083C92.5333 36.3663 92.6418 36.954 92.6457 37.5172V46.3808C92.6457 49.0817 90.4886 51.2738 87.8019 51.3383V78.544C89.6154 78.1255 91.0259 76.6491 91.3346 74.7968V54.6205C91.3346 54.4436 91.3579 54.2756 91.4031 54.1129C91.6253 53.2617 92.399 52.6352 93.3238 52.6352C93.8689 52.6352 94.3675 52.8587 94.7292 53.2139C95.0857 53.5756 95.3079 54.0703 95.3079 54.6192V74.0166C95.3079 75.3018 95.831 76.4631 96.6706 77.3027C97.5102 78.1461 98.674 78.6654 99.958 78.6654C102.526 78.6654 104.607 76.5845 104.607 74.0166V34.5954C104.764 34.753 104.922 34.9106 105.074 35.072C105.26 35.2671 105.453 35.4596 105.635 35.6585L106.181 36.2591C106.357 36.4632 106.538 36.666 106.71 36.8752C106.883 37.0845 107.056 37.2938 107.217 37.5133C107.416 37.7769 107.664 38.0404 107.93 38.2599C109.737 39.7415 112.403 39.478 113.885 37.6722C115.368 35.8639 115.104 33.1965 113.295 31.7162V31.7098Z" fill="#0045BF"/>
<path d="M93.3548 15.7677C97.7091 15.7677 101.241 12.2375 101.241 7.88449C101.241 3.53149 97.7104 0 93.3548 0C88.9992 0 85.4729 3.5302 85.4729 7.88449C85.4729 12.2388 89.0018 15.7677 93.3548 15.7677Z" fill="#0045BF"/>
<path d="M39.0546 8.9256C37.0861 8.9256 35.3126 9.72257 34.0209 11.0117C32.7318 12.3021 31.9361 14.0782 31.9348 16.0454C31.9348 18.0152 32.7305 19.79 34.0209 21.0804C35.3113 22.3708 37.0861 23.1665 39.0546 23.1678C41.0232 23.1678 42.7992 22.3708 44.0909 21.0804C45.3813 19.79 46.177 18.0152 46.177 16.0454C46.177 14.0756 45.3813 12.3021 44.0909 11.0117C42.8005 9.72257 41.0245 8.92689 39.0546 8.9256Z" fill="white"/>
<path d="M91.1163 46.3769V37.5224C91.1163 37.1517 91.0414 36.7512 90.8916 36.3947L90.5893 35.6714L87.404 28.0517C87.2412 27.6706 87.0139 27.278 86.7478 26.946C85.8333 25.8016 84.4925 25.2126 83.1285 25.2113C82.9166 25.2113 82.7035 25.2255 82.493 25.2552C82.4155 25.2642 82.3367 25.2591 82.2605 25.2461H68.8411C68.7623 25.2655 68.6822 25.2771 68.5995 25.2707C68.482 25.2616 68.3644 25.2565 68.2482 25.2578C67.2691 25.2578 66.3197 25.5626 65.5305 26.1129C64.8019 26.6218 64.2142 27.3361 63.859 28.2144H64.0373C64.0566 28.2144 64.076 28.2196 64.0954 28.2209C64.3214 28.1951 64.5488 28.1796 64.7761 28.1796C66.578 28.1796 68.3735 28.9675 69.5877 30.4891C69.9519 30.9451 70.2438 31.4501 70.4583 31.9552V31.9578L73.6462 39.5775L73.9484 40.3008C74.1822 40.8601 74.2881 41.4478 74.292 42.011V50.8733C74.292 53.5755 72.1349 55.765 69.4495 55.8308V85.4907C70.4169 85.4248 71.2862 85.0128 71.9308 84.3669C72.6361 83.6604 73.0701 82.6968 73.0701 81.6182V62.2208C73.0701 61.4626 73.3801 60.7716 73.8722 60.2781L73.8761 60.2743C74.3721 59.7821 75.0619 59.4721 75.8188 59.4721C76.4543 59.4721 77.0472 59.6891 77.5122 60.0547C77.9759 60.4151 78.3182 60.9227 78.4745 61.5078C78.4745 61.5078 78.4745 61.5104 78.4745 61.5117C78.4745 61.5143 78.4758 61.5169 78.4771 61.5208C78.5417 61.7507 78.5701 61.9883 78.5701 62.2221V82.3196C78.7329 83.216 79.2004 84.004 79.867 84.5749C80.5477 85.1549 81.4234 85.5036 82.3858 85.5036C83.4604 85.5036 84.4279 85.0709 85.1306 84.3669L85.1332 84.3643C85.8385 83.6604 86.2712 82.6968 86.2725 81.6195V50.5246C86.2725 50.3011 86.3693 50.0906 86.5385 49.9459C86.7103 49.7999 86.9312 49.7353 87.1521 49.7702C87.3368 49.7986 87.5099 49.8167 87.6765 49.8167C88.6298 49.8167 89.4836 49.4331 90.1088 48.8092C90.7314 48.184 91.115 47.3302 91.115 46.3795L91.1163 46.3769Z" fill="white"/>
<path d="M44.6722 49.4563C44.5017 49.6643 44.3377 49.8619 44.1891 50.0634C43.21 51.3797 41.7 52.081 40.1784 52.0785C39.1425 52.0785 38.0923 51.7555 37.2011 51.0916C35.8835 50.1112 35.1847 48.6025 35.186 47.0783C35.186 46.0437 35.5089 44.9935 36.1742 44.101C36.4222 43.7677 36.7115 43.4706 37.0112 43.2213H37.0138C37.2062 43.0612 37.3987 42.8881 37.5963 42.7085H37.5976C37.7797 42.5406 37.967 42.3572 38.1711 42.166L38.7343 41.6015C38.9061 41.4285 39.0856 41.2321 39.282 41.0267C39.6437 40.6509 39.995 40.2543 40.3502 39.85C40.5336 39.642 40.7171 39.4199 40.9069 39.1951L41.2557 38.5234V38.526C41.4055 38.2302 41.5554 37.9538 41.6871 37.6813V37.6851C41.97 37.0935 42.2593 36.5291 42.5125 35.9633V35.9594C42.652 35.6559 42.7889 35.3691 42.9078 35.0927L43.2862 34.2156C43.4115 33.9056 43.5355 33.6111 43.6479 33.3244V33.3192C43.7642 33.026 43.8739 32.7289 43.9799 32.4267C44.4281 31.1363 45.2638 30.0822 46.3049 29.3563C47.3473 28.6304 48.6003 28.2274 49.8958 28.2274C49.9772 28.2274 50.0573 28.2338 50.1374 28.2364C50.1916 28.2235 50.2472 28.2157 50.3053 28.2157H50.7044C50.4745 27.8114 50.189 27.4291 49.8429 27.1023C48.9271 26.2407 47.7671 25.8209 46.5994 25.8196C46.4806 25.8196 46.3617 25.8248 46.2442 25.8326C46.1602 25.839 46.0789 25.8274 45.9988 25.8067H32.582C32.5071 25.8209 32.4283 25.8248 32.3495 25.8145C32.1376 25.7848 31.9258 25.7706 31.7152 25.7706C30.8098 25.7706 29.925 26.0366 29.1758 26.5262C28.4253 27.0158 27.8143 27.721 27.4397 28.6123L24.2544 36.232L23.9444 36.9734V36.9695C23.8062 37.3118 23.7274 37.6851 23.7274 38.0791V46.9375C23.7274 47.8895 24.1111 48.742 24.7336 49.3685C25.3575 49.9911 26.2113 50.3734 27.1646 50.3747C27.3312 50.3747 27.5043 50.3579 27.6877 50.3295C27.9099 50.2946 28.1334 50.3579 28.3026 50.5026C28.4731 50.6486 28.57 50.8591 28.57 51.0826V82.1775C28.57 83.2561 29.0027 84.2197 29.708 84.9236L29.7105 84.9262C30.4132 85.6302 31.382 86.0616 32.4567 86.0629C33.4203 86.0629 34.296 85.7142 34.9755 85.1342C35.642 84.5645 36.1096 83.774 36.2723 82.8789V62.7814C36.2723 62.5463 36.302 62.31 36.3653 62.08C36.3653 62.08 36.3679 62.0749 36.3679 62.071C36.3679 62.0697 36.3679 62.0684 36.3679 62.0658C36.5255 61.4807 36.8665 60.9731 37.3315 60.6127C37.7965 60.2471 38.3881 60.0301 39.0249 60.0301C39.7806 60.0301 40.4716 60.3401 40.9676 60.8323L40.9728 60.8361C41.4637 61.3309 41.775 62.0206 41.775 62.7801V82.1762C41.775 83.2535 42.2103 84.2184 42.9129 84.9223V84.9249C43.5665 85.5772 44.4449 85.9906 45.4253 86.05V48.5999L45.1837 48.866C45.0042 49.074 44.8311 49.269 44.6761 49.4576L44.6722 49.4563Z" fill="white"/>
<path d="M75.7878 8.36888C73.818 8.36888 72.0432 9.16456 70.7515 10.4537C69.4611 11.7454 68.6654 13.5202 68.6654 15.4887C68.6654 17.4572 69.4611 19.2333 70.7515 20.525C72.0432 21.8141 73.818 22.6098 75.7878 22.6098C77.7563 22.6098 79.5298 21.8141 80.8215 20.525C82.1119 19.2333 82.9076 17.4585 82.9076 15.4887C82.9076 13.5189 82.1119 11.7454 80.8215 10.4537C79.5311 9.16456 77.7563 8.36888 75.7878 8.36888Z" fill="white"/>
<path d="M72.7666 50.872V42.0175C72.7653 41.6468 72.6904 41.2476 72.5406 40.8898L73.2445 40.5953L72.5393 40.8898L72.237 40.1665L69.0504 32.5468V32.5494C68.8902 32.1683 68.6616 31.7744 68.3955 31.4411C67.4797 30.2967 66.1389 29.7064 64.7762 29.7051C64.5631 29.7051 64.3512 29.7193 64.142 29.749C64.0632 29.7593 63.9857 29.7541 63.9095 29.7399H50.4875C50.41 29.7606 50.3286 29.7709 50.2459 29.7645C50.1284 29.7554 50.0121 29.7516 49.8946 29.7516C48.9155 29.7516 47.9661 30.0564 47.1782 30.6067C46.389 31.1569 45.7625 31.9462 45.4215 32.9253C45.3104 33.243 45.1941 33.5582 45.0714 33.8734C45.0714 33.8721 45.0714 33.8708 45.0714 33.8708L45.0688 33.8759V33.8734C44.9448 34.1924 44.8183 34.4934 44.6994 34.7853L44.693 34.8034L44.308 35.6946C44.1711 36.0111 44.029 36.3043 43.9012 36.5885V36.5846C43.6273 37.1995 43.3315 37.7781 43.0577 38.3452V38.3504C42.9053 38.6565 42.7515 38.9433 42.6108 39.2197L42.6082 39.2223L42.222 39.9701C42.1961 40.0192 42.1625 40.0696 42.1277 40.1109C41.9236 40.3525 41.7156 40.6044 41.4934 40.8562C41.1331 41.2657 40.7675 41.6778 40.38 42.0821C40.203 42.2668 40.017 42.4722 39.8091 42.6801L39.2356 43.2536L39.2188 43.2704C39.0302 43.4461 38.8351 43.6398 38.6181 43.8362H38.6194C38.4166 44.0209 38.2048 44.2108 37.9774 44.3981C37.7695 44.5712 37.5564 44.7908 37.3923 45.0116C36.9286 45.6355 36.7077 46.3589 36.7064 47.0783C36.7064 48.1401 37.1895 49.1838 38.1066 49.8658C38.7305 50.3295 39.4526 50.5504 40.1733 50.5504C41.2351 50.5504 42.2775 50.0686 42.9595 49.1528C43.1365 48.9138 43.3173 48.6942 43.4917 48.4837C43.6764 48.2615 43.8598 48.0561 44.0303 47.8585L44.0458 47.8417L44.5909 47.2411C44.7898 47.0228 44.9849 46.8278 45.1618 46.6417C45.322 46.4725 45.4848 46.3098 45.6424 46.1522C45.8606 45.9326 46.1887 45.868 46.4755 45.9856C46.7597 46.1044 46.947 46.3821 46.947 46.6908V86.1133C46.947 87.1893 47.3797 88.1555 48.0837 88.862C48.7902 89.566 49.7564 89.9987 50.8324 89.9987C51.9071 89.9987 52.8758 89.566 53.5785 88.862C54.2838 88.1555 54.7178 87.1906 54.7178 86.1133V66.7172C54.7178 65.9577 55.0278 65.2667 55.5199 64.7745L55.5251 64.7707C56.0211 64.2785 56.7122 63.9698 57.4678 63.9698C58.1033 63.9698 58.6962 64.1855 59.1625 64.5498C59.6249 64.9102 59.9685 65.4178 60.1235 66.0029V66.0081C60.1235 66.0081 60.1261 66.0133 60.1261 66.0171C60.1894 66.2471 60.2191 66.4834 60.2191 66.7185V86.8173C60.3806 87.7124 60.8482 88.5016 61.516 89.0713C62.1954 89.6512 63.0712 90 64.0348 90C65.1095 90 66.0769 89.5673 66.7809 88.8633V88.8607C67.4875 88.1568 67.9189 87.1931 67.9189 86.1146V55.021C67.9189 54.7975 68.0158 54.5857 68.1863 54.441C68.3555 54.295 68.5789 54.2317 68.7998 54.2666C68.9832 54.295 69.1563 54.3105 69.3255 54.3105C70.2775 54.3105 71.1313 53.9282 71.7565 53.3043C72.3791 52.6791 72.7627 51.8253 72.7627 50.8733L72.7666 50.872Z" fill="#0045BF"/>
<path d="M52.4031 14.9488C51.1114 16.2392 50.317 18.0139 50.317 19.9825C50.317 21.951 51.1114 23.7258 52.4031 25.0188C53.6935 26.3079 55.4683 27.1036 57.4368 27.1036C59.4054 27.1036 61.1789 26.3079 62.4706 25.0188C63.761 23.7271 64.5553 21.9523 64.5566 19.9825C64.5566 18.0139 63.761 16.2405 62.4706 14.9488C61.1789 13.6584 59.4041 12.8627 57.4368 12.8627C55.467 12.8627 53.6935 13.6584 52.4031 14.9488Z" fill="#0045BF"/>
</svg>
