<svg width="22" height="23" viewBox="0 0 22 23" fill="none" xmlns="http://www.w3.org/2000/svg">
<path d="M2.49333 0C1.1163 0 0 1.13673 0 2.53896C0 3.94119 1.1163 5.07792 2.49333 5.07792C3.87036 5.07792 4.98667 3.94119 4.98667 2.53896C4.98667 1.13673 3.87036 0 2.49333 0Z" fill="black"/>
<path d="M0.146667 7.16883C0.0656649 7.16883 0 7.2357 0 7.31818V22.8506C0 22.9331 0.0656649 23 0.146667 23H4.84C4.921 23 4.98667 22.9331 4.98667 22.8506V7.31818C4.98667 7.2357 4.921 7.16883 4.84 7.16883H0.146667Z" fill="black"/>
<path d="M7.77333 7.16883C7.69233 7.16883 7.62667 7.2357 7.62667 7.31818V22.8506C7.62667 22.9331 7.69233 23 7.77333 23H12.4667C12.5477 23 12.6133 22.9331 12.6133 22.8506V14.487C12.6133 13.8929 12.8451 13.323 13.2577 12.9029C13.6703 12.4828 14.2299 12.2468 14.8133 12.2468C15.3968 12.2468 15.9564 12.4828 16.369 12.9029C16.7815 13.323 17.0133 13.8929 17.0133 14.487V22.8506C17.0133 22.9331 17.079 23 17.16 23H21.8533C21.9343 23 22 22.9331 22 22.8506V12.5517C22 9.65223 19.5235 7.38389 16.6905 7.64615C15.8168 7.72704 14.9529 7.94821 14.1463 8.30025L12.6133 8.96924V7.31818C12.6133 7.2357 12.5477 7.16883 12.4667 7.16883H7.77333Z" fill="black"/>
</svg>
