<svg width="70" height="70" viewBox="0 0 70 70" fill="none" xmlns="http://www.w3.org/2000/svg">
<g clip-path="url(#clip0_291_2001)">
<path d="M55.6354 49.482H41.0339C40.3702 49.482 39.8273 50.0249 39.8273 50.6886V65.1705C39.8273 65.8342 40.3702 66.3771 41.0339 66.3771H52.6899C55.2005 66.3771 57.6146 65.0499 58.9059 62.8897L62.8547 56.2832L55.6354 49.4809V49.482Z" fill="#599142"/>
<path d="M14.3624 49.4841L21.6166 36.0658C22.0145 35.3175 21.7256 34.3766 20.9646 33.9903L8.59305 27.7278C7.86911 27.3542 6.97583 27.6315 6.57682 28.3554L0.855145 38.9383C-0.339781 41.1461 -0.279455 43.8376 1.01178 45.9978L4.26634 51.4474L14.3613 49.4852L14.3624 49.4841Z" fill="#599142"/>
<path d="M35.5789 9.679L43.3994 22.7861C43.8333 23.5101 44.7869 23.7398 45.4992 23.2804L57.2304 15.8706C57.9184 15.4367 58.1354 14.5307 57.7131 13.8194L51.5575 3.48846C50.2662 1.32722 47.9367 0 45.4145 0H39.6368L35.5778 9.679H35.5789Z" fill="#599142"/>
<path d="M47.1789 40.402C46.7047 41.4805 47.8563 42.576 48.8829 42.0362L50.9997 40.8804L59.0625 55.8271C60.2352 58.001 60.1865 60.7549 58.908 62.8929L68.967 46.0475C70.2815 43.8577 70.3461 41.1524 69.1247 38.8885L65.8722 32.8652L67.9975 31.7169C69.0273 31.1612 68.732 29.5958 67.5794 29.4212L54.0405 27.1859C53.4964 27.097 52.9937 27.3806 52.763 27.8749L47.1778 40.3999L47.1789 40.402Z" fill="#6DBA50"/>
<path d="M30.5092 18.1874L35.5789 9.67795C35.5789 9.67795 39.2695 3.48846 39.2738 3.48846C40.5311 1.37485 42.9199 0 45.4145 0H25.8036C23.2444 0 20.8916 1.33887 19.5739 3.53715L16.005 9.53612L13.9284 8.29145C12.9261 7.69981 11.7301 8.74974 12.1641 9.83671L17.1978 22.5925C17.4042 23.1121 17.8995 23.4 18.4425 23.3429L32.0661 21.7119C33.2261 21.5658 33.5754 20.0079 32.5858 19.4205L30.5092 18.1874Z" fill="#6DBA50"/>
<path d="M1.0139 45.9946L11.0686 62.8432C12.3705 65.0372 14.7233 66.3761 17.2941 66.3761L24.1409 66.3718V68.785C24.1409 69.9577 25.6618 70.4403 26.3635 69.511L34.7512 58.6487C35.0878 58.2148 35.0762 57.6348 34.7512 57.2009L26.3719 46.3386C25.6501 45.4093 24.1408 45.9046 24.1292 47.0646L24.1419 49.4778C24.1419 49.4778 7.15999 49.482 7.15576 49.482C4.6897 49.482 2.2882 48.1357 1.01496 45.9935L1.0139 45.9946Z" fill="#6DBA50"/>
</g>
<defs>
<clipPath id="clip0_291_2001">
<rect width="69.9989" height="70" fill="white" transform="matrix(-1 0 0 1 69.9989 0)"/>
</clipPath>
</defs>
</svg>
