<svg width="20" height="20" viewBox="0 0 20 20" fill="none" xmlns="http://www.w3.org/2000/svg">
<path d="M11.9404 10L19.594 2.34643C19.8518 2.08912 19.9967 1.73994 19.9971 1.37572C19.9974 1.0115 19.853 0.66207 19.5957 0.4043C19.3384 0.146529 18.9892 0.00153468 18.625 0.00121303C18.2608 0.000891372 17.9113 0.145269 17.6536 0.402585L10 8.05615L2.34643 0.402585C2.08866 0.144814 1.73905 0 1.37451 0C1.00997 0 0.660355 0.144814 0.402585 0.402585C0.144814 0.660355 0 1.00997 0 1.37451C0 1.73905 0.144814 2.08866 0.402585 2.34643L8.05615 10L0.402585 17.6536C0.144814 17.9113 0 18.2609 0 18.6255C0 18.99 0.144814 19.3396 0.402585 19.5974C0.660355 19.8552 1.00997 20 1.37451 20C1.73905 20 2.08866 19.8552 2.34643 19.5974L10 11.9438L17.6536 19.5974C17.9113 19.8552 18.2609 20 18.6255 20C18.99 20 19.3396 19.8552 19.5974 19.5974C19.8552 19.3396 20 18.99 20 18.6255C20 18.2609 19.8552 17.9113 19.5974 17.6536L11.9404 10Z" fill="#005CFF"/>
</svg>
