<svg width="26" height="26" viewBox="0 0 26 26" fill="none" xmlns="http://www.w3.org/2000/svg">
<path d="M0 13.0782C0.00151255 19.5128 4.65176 24.9916 10.9677 26V16.8584H7.66973V13.0782H10.9716V10.2006C10.824 8.83709 11.2869 7.47814 12.2347 6.49235C13.1825 5.50656 14.5171 4.9961 15.8763 5.09942C16.852 5.11527 17.8252 5.2027 18.7882 5.36102V8.5774H17.1451C16.5794 8.50285 16.0107 8.69083 15.5992 9.08839C15.1876 9.48595 14.9778 10.0501 15.0288 10.6218V13.0782H18.631L18.0551 16.8597H15.0288V26C21.8594 24.9138 26.6492 18.637 25.9283 11.7167C25.2073 4.79644 19.228 -0.344586 12.322 0.0180567C5.41608 0.3807 0.00109778 6.12006 0 13.0782Z" fill="black"/>
</svg>
