<svg width="249" height="291" viewBox="0 0 249 291" fill="none" xmlns="http://www.w3.org/2000/svg">
<g clip-path="url(#clip0_291_945)">
<path d="M232.651 0.840088H217.113H201.921H201.574H186.482H186.382H170.944H155.768H155.406H140.333H140.234H124.795H109.273H109.257H93.7345H78.2123H78.1964H62.6741H47.331H47.1359H31.9162H31.7928H16.378H0.839844V16.4051V31.9702V47.5353H16.378V31.9702V16.4051H31.7928H31.9162H47.1359H47.331H62.6741H78.1964H78.2123H93.7345H109.257H109.273H124.795H140.234H140.333H155.406H155.768H170.944H186.382H186.482H201.574H201.921H217.113H232.651V31.9702V47.5353H248.185V31.9702V16.4051V0.840088H232.651Z" fill="#1C73FF"/>
<path d="M232.651 290.205H217.113H201.921H201.574H186.482H186.382H170.944H155.768H155.406H140.333H140.234H124.795H109.273H109.257H93.7345H78.2123H78.1964H62.6741H47.331H47.1359H31.9162H31.7928H16.378H0.839844V274.64V259.075V243.51H16.378V259.075V274.64H31.7928H31.9162H47.1359H47.331H62.6741H78.1964H78.2123H93.7345H109.257H109.273H124.795H140.234H140.333H155.406H155.768H170.944H186.382H186.482H201.574H201.921H217.113H232.651V259.075V243.51H248.185V259.075V274.64V290.205H232.651Z" fill="#1C73FF"/>
<path d="M75.442 159.589H173.348C174.936 159.589 175.744 161.498 174.637 162.639L125.682 213.169C124.978 213.899 123.812 213.899 123.103 213.169L74.1485 162.639C73.042 161.498 73.85 159.589 75.438 159.589H75.442Z" fill="#1C73FF"/>
<path d="M151.907 76.5283H96.8906V169.664H151.907V76.5283Z" fill="#1C73FF"/>
</g>
<defs>
<clipPath id="clip0_291_945">
<rect width="247.345" height="289.365" fill="white" transform="translate(0.839844 0.840088)"/>
</clipPath>
</defs>
</svg>
