<svg width="26" height="26" viewBox="0 0 26 26" fill="none" xmlns="http://www.w3.org/2000/svg">
<path d="M12.9928 26C9.44142 26 9.02277 25.9813 7.63687 25.9207C6.55612 25.8852 5.48935 25.6658 4.48251 25.272C2.74048 24.5951 1.363 23.219 0.68573 21.4793C0.306494 20.4702 0.101947 19.4041 0.080844 18.3266C0 16.9456 0 16.4929 0 12.9741C0 9.41772 0.0187674 9.00255 0.080844 7.62586C0.102409 6.54976 0.306949 5.48515 0.68573 4.47749C1.36227 2.73541 2.74198 1.3582 4.48684 0.6833C5.49543 0.30302 6.56185 0.0982342 7.63976 0.0778443C9.01843 0 9.47174 0 12.9928 0C16.573 0 16.9845 0.0187403 18.3487 0.0778443C19.4294 0.0984105 20.4986 0.303174 21.5103 0.6833C23.2546 1.35896 24.6341 2.7359 25.3114 4.47749C25.697 5.49984 25.9026 6.58109 25.9192 7.67343C26 9.05445 26 9.50566 26 13.0231C26 16.5405 25.9798 17.0018 25.9192 18.3669C25.8977 19.4455 25.6926 20.5126 25.3128 21.5225C24.6338 23.2635 23.2543 24.64 21.5103 25.3167C20.5001 25.6947 19.433 25.8989 18.3545 25.9207C16.9758 26 16.5239 26 12.9928 26ZM12.9437 2.28199C9.41255 2.28199 9.04586 2.29929 7.66719 2.36128C6.84429 2.37216 6.02934 2.5238 5.25775 2.8096C4.11835 3.24497 3.21676 4.14159 2.77612 5.27756C2.4877 6.05643 2.33582 6.8791 2.32715 7.70947C2.25064 9.10634 2.25064 9.4725 2.25064 12.9741C2.25064 16.4338 2.26363 16.8533 2.32715 18.2415C2.34008 19.0635 2.49187 19.8774 2.77612 20.6489C3.21741 21.7841 4.11885 22.6801 5.25775 23.1154C6.02882 23.4031 6.84409 23.5548 7.66719 23.5638C9.06463 23.6445 9.43276 23.6445 12.9437 23.6445C16.485 23.6445 16.8516 23.6272 18.2188 23.5638C19.0422 23.5538 19.8578 23.4021 20.6297 23.1154C21.7621 22.6763 22.6579 21.7824 23.0983 20.6518C23.3861 19.8723 23.538 19.0492 23.5472 18.2185H23.5631C23.6252 16.8403 23.6252 16.4727 23.6252 12.951C23.6252 9.42925 23.6093 9.05877 23.5472 7.68208C23.5343 6.86104 23.3825 6.04809 23.0983 5.27756C22.6589 4.14531 21.763 3.2497 20.6297 2.8096C19.858 2.52236 19.0423 2.37068 18.2188 2.36128C16.8228 2.28199 16.4575 2.28199 12.9437 2.28199ZM12.9928 19.6326C10.2932 19.6344 7.85835 18.0119 6.8239 15.5219C5.78945 13.032 6.35911 10.1649 8.26721 8.25793C10.1753 6.35093 13.046 5.77961 15.5405 6.81041C18.0349 7.84122 19.6618 10.2711 19.6624 12.9668C19.6584 16.6444 16.6756 19.6255 12.9928 19.6326ZM12.9928 8.63928C10.6009 8.63928 8.66185 10.5755 8.66185 12.964C8.66185 15.3524 10.6009 17.2886 12.9928 17.2886C15.3847 17.2886 17.3237 15.3524 17.3237 12.964C17.3182 10.5778 15.3824 8.64482 12.9928 8.63928ZM19.9223 7.61145C19.0639 7.60826 18.3702 6.91169 18.3718 6.05457C18.3734 5.19745 19.0697 4.50345 19.928 4.50345C20.7864 4.50345 21.4827 5.19743 21.4843 6.05456C21.4847 6.46809 21.3201 6.86475 21.027 7.15689C20.7339 7.44903 20.3364 7.61259 19.9223 7.61145Z" fill="black"/>
</svg>
