<svg width="152" height="39" viewBox="0 0 152 39" fill="none" xmlns="http://www.w3.org/2000/svg">
<path d="M45.3444 0.336914V0.705007C45.3444 3.62626 45.3444 6.54751 45.3444 9.46877C45.3444 9.67239 45.2896 9.81337 45.1408 9.96217C36.5258 18.5066 27.9109 27.0589 19.3037 35.6112C18.3874 36.5197 17.4711 37.4204 16.5626 38.3289C16.4921 38.3994 16.4217 38.462 16.2963 38.5795C16.0379 38.2975 15.7873 38.0156 15.521 37.7493C10.5791 32.8388 5.63729 27.9361 0.695441 23.0334C0.51531 22.8533 0.444824 22.6731 0.444824 22.4147C0.452656 19.5326 0.444824 16.6505 0.444824 13.7684V13.3533C5.77043 18.6398 11.0412 23.8714 16.3433 29.1344C25.9999 19.5483 35.6408 9.97783 45.3444 0.344745V0.336914Z" fill="#1789C9"/>
<path d="M29.438 38.5639C27.8795 36.9741 26.3288 35.3921 24.7546 33.7944C31.5683 27.0356 38.4211 20.2297 45.3131 13.3848C45.3209 13.5022 45.3366 13.5727 45.3366 13.6432C45.3366 16.6115 45.3366 19.5797 45.3366 22.5479C45.3366 22.6811 45.2739 22.8377 45.1799 22.9317C39.9874 28.1007 34.7871 33.2697 29.5868 38.4308C29.5555 38.4621 29.5164 38.4935 29.438 38.5718V38.5639Z" fill="#FDCA05"/>
<path d="M0.468506 26.4166C0.554655 26.4949 0.625141 26.5498 0.679964 26.6046C2.77888 28.68 4.86997 30.7633 6.96888 32.8387C7.10202 32.9718 7.17251 33.105 7.16468 33.3008C7.15685 34.9454 7.16468 36.5901 7.16468 38.2348V38.5324H0.468506V26.4166Z" fill="#1889C9"/>
<path d="M45.3285 26.417V38.5249H38.6245V38.2352C38.6245 36.5905 38.6245 34.9458 38.6245 33.3011C38.6245 33.168 38.6715 33.0035 38.7577 32.9096C40.8879 30.7793 43.026 28.6647 45.164 26.5423C45.2032 26.5032 45.2502 26.4718 45.3129 26.4092L45.3285 26.417Z" fill="#1889C9"/>
<path d="M111.375 24.1295H109.558V19.2112C109.558 19.2112 109.519 19.2033 109.495 19.1955C109.448 19.266 109.393 19.3286 109.354 19.3991C108.634 20.5896 107.913 21.7878 107.208 22.9861C107.083 23.1975 106.95 23.2837 106.715 23.2524C106.629 23.2367 106.535 23.2367 106.449 23.2524C106.245 23.2837 106.127 23.1897 106.026 23.0174C105.274 21.78 104.506 20.5426 103.692 19.313V24.1295H101.859V15.7104C102.36 15.7104 102.862 15.7025 103.363 15.7182C103.441 15.7182 103.543 15.8513 103.598 15.9453C104.553 17.5038 105.501 19.0702 106.449 20.6366C106.503 20.7305 106.566 20.8167 106.637 20.9263C107.271 19.869 107.89 18.8274 108.508 17.7936C108.884 17.1671 109.268 16.5405 109.628 15.9062C109.722 15.7495 109.824 15.6947 110.004 15.6947C110.451 15.7104 110.897 15.6947 111.375 15.6947V24.1139V24.1295Z" fill="black"/>
<path d="M56.5831 4.65201V9.57036H54.7583V1.16686C55.2674 1.16686 55.7843 1.15903 56.309 1.1747C56.3795 1.1747 56.4578 1.31567 56.5126 1.40182C57.4524 2.94468 58.3922 4.49537 59.3321 6.04606C59.3947 6.14788 59.4574 6.24969 59.5435 6.38283C59.614 6.27319 59.6767 6.19487 59.7237 6.10089C60.6635 4.53453 61.6033 2.96034 62.5353 1.38615C62.6292 1.22169 62.7311 1.1512 62.9268 1.15903C63.3733 1.1747 63.8197 1.15903 64.2896 1.15903V9.57036H62.4804V4.65984C62.4804 4.65984 62.4334 4.64418 62.41 4.62851C62.3551 4.71466 62.3003 4.79298 62.2455 4.87913C61.5328 6.06173 60.8123 7.25216 60.1074 8.44259C59.9899 8.63838 59.8725 8.7402 59.6453 8.70104C59.5592 8.68537 59.4652 8.68537 59.3791 8.70104C59.1676 8.73236 59.0423 8.64621 58.9326 8.45825C58.2043 7.25999 57.4603 6.06173 56.7241 4.8713C56.6928 4.82431 56.6614 4.77731 56.5831 4.65201Z" fill="black"/>
<path d="M134.04 24.1298H132.121V18.6711C132.003 18.8199 131.941 18.8982 131.878 18.9843C130.656 20.629 129.435 22.2737 128.229 23.9262C128.111 24.0907 127.986 24.1533 127.79 24.1455C127.273 24.1298 126.764 24.1455 126.231 24.1455V15.742H128.174V21.0989C128.174 21.0989 128.213 21.1146 128.236 21.1146C128.706 20.4802 129.168 19.8458 129.638 19.2193C130.453 18.1228 131.259 17.0264 132.066 15.9221C132.168 15.7811 132.27 15.7107 132.45 15.7185C132.975 15.7341 133.499 15.7185 134.04 15.7185V24.1298Z" fill="black"/>
<path d="M134.267 9.56266V1.17482C134.337 1.17482 134.392 1.16699 134.447 1.16699C135.786 1.16699 137.117 1.16699 138.457 1.16699C139.068 1.16699 139.655 1.27664 140.211 1.55858C140.892 1.90318 141.284 2.44357 141.323 3.21892C141.362 4.0021 141.049 4.62081 140.383 5.05155C140.321 5.09071 140.258 5.1377 140.18 5.19253C140.266 5.23169 140.328 5.25518 140.391 5.27868C141.213 5.60761 141.691 6.20283 141.73 7.09565C141.769 7.9963 141.401 8.6855 140.603 9.13191C140.078 9.42169 139.514 9.55483 138.919 9.56266C137.376 9.57832 135.833 9.56266 134.259 9.56266H134.267ZM136.232 8.12944C136.976 8.12944 137.689 8.12944 138.394 8.12944C138.558 8.12944 138.731 8.12161 138.895 8.08245C139.506 7.94931 139.765 7.60471 139.741 6.986C139.718 6.46127 139.404 6.08535 138.817 6.05402C137.963 6.00703 137.102 6.04619 136.232 6.04619V8.13728V8.12944ZM136.232 4.61298C137 4.61298 137.728 4.6443 138.457 4.60514C138.997 4.57382 139.31 4.20572 139.326 3.69666C139.349 3.13277 139.075 2.73335 138.527 2.66286C137.924 2.59238 137.305 2.61587 136.694 2.59238C136.538 2.59238 136.389 2.59238 136.232 2.59238V4.61298Z" fill="black"/>
<path d="M111.602 30.2701V38.6736H109.706V33.3088C109.706 33.3088 109.667 33.2853 109.644 33.2775C109.581 33.3558 109.519 33.4341 109.456 33.5124C108.242 35.1493 107.028 36.7861 105.822 38.4308C105.689 38.6109 105.548 38.7049 105.313 38.6971C104.812 38.6736 104.31 38.6971 103.786 38.6971V30.2936H105.72V35.6427C105.72 35.6427 105.767 35.6583 105.783 35.6583C105.845 35.58 105.916 35.4939 105.979 35.4155C107.192 33.7709 108.414 32.1184 109.628 30.4659C109.738 30.3249 109.84 30.2622 110.02 30.2701C110.544 30.2779 111.061 30.2701 111.602 30.2701Z" fill="black"/>
<path d="M147.447 9.74312C145.489 9.6648 143.978 8.99127 143.132 7.27611C141.989 4.95007 143.03 1.77037 146.257 1.1125C147.894 0.775733 149.429 1.08117 150.674 2.26377C151.912 3.44637 152.264 4.93441 151.81 6.56342C151.348 8.21592 150.181 9.17923 148.536 9.57865C148.144 9.67263 147.737 9.6883 147.447 9.72746V9.74312ZM149.993 5.38082C149.993 3.81446 148.904 2.70235 147.361 2.69452C145.803 2.69452 144.691 3.80663 144.683 5.37299C144.683 6.93934 145.795 8.05929 147.353 8.05929C148.896 8.05929 149.993 6.94718 149.993 5.38082Z" fill="black"/>
<path d="M95.7653 24.2943C93.7996 24.2159 92.3037 23.5267 91.4579 21.8116C90.1813 19.2193 91.7476 16.1727 94.6062 15.6558C96.3606 15.3425 97.9582 15.6715 99.2035 17.0185C100.339 18.2403 100.59 19.7205 100.096 21.279C99.5951 22.8532 98.4438 23.7695 96.854 24.1455C96.4624 24.2394 96.0551 24.2551 95.7653 24.2943ZM93.0242 19.9163C93.0242 21.4827 94.105 22.6026 95.64 22.6104C97.1986 22.6183 98.3185 21.5062 98.3263 19.9398C98.3263 18.3813 97.2299 17.2535 95.6949 17.2457C94.1285 17.2378 93.0242 18.3343 93.0164 19.9163H93.0242Z" fill="black"/>
<path d="M75.6769 24.2942C73.7111 24.2238 72.2074 23.5424 71.3538 21.8351C70.0615 19.2506 71.6122 16.1962 74.4708 15.6636C76.1077 15.3582 77.627 15.6245 78.8723 16.7914C80.1332 17.974 80.4934 19.4699 80.0392 21.1145C79.5771 22.7827 78.4024 23.7538 76.742 24.1454C76.3583 24.2394 75.9589 24.2551 75.6847 24.2942H75.6769ZM75.5673 22.6104C77.1023 22.6104 78.2066 21.4983 78.2144 19.9398C78.2222 18.3734 77.1101 17.2535 75.5594 17.2456C74.0087 17.2456 72.8966 18.3656 72.8966 19.9319C72.8966 21.4983 74.0087 22.6104 75.5673 22.6104Z" fill="black"/>
<path d="M87.5345 19.0235V15.7342H89.4924V24.122H87.558V20.7073H83.7047V24.122H81.7546V15.7263H83.6891V19.0235H87.5423H87.5345Z" fill="black"/>
<path d="M70.5076 1.17505H72.4499V4.4644H76.2953V1.17505H78.2454V9.57072H76.3187V6.15606H72.4655V9.57072H70.5076V1.17505Z" fill="black"/>
<path d="M101.647 38.6813H99.705V35.251H95.8517V38.6735H93.8938V30.2935H95.8361V33.5828H99.6815V30.2935H101.639V38.6813H101.647Z" fill="black"/>
<path d="M61.2976 22.5557V24.1299H54.7659V15.7343H61.1409V17.2771H56.7238V19.1097H60.624V20.6135H56.7238V22.5557H61.2976Z" fill="black"/>
<path d="M107.293 1.18311V2.72597H102.868V4.55077H106.761V6.07797H102.86V8.01242H107.426V9.58661H100.902V1.19094H107.285L107.293 1.18311Z" fill="black"/>
<path d="M71.0715 38.689C70.3353 38.689 69.6696 38.6969 68.9961 38.6812C68.9021 38.6812 68.7768 38.5716 68.7142 38.4776C68.0798 37.5221 67.4454 36.5666 66.8345 35.5955C66.6857 35.3605 66.5291 35.2744 66.2628 35.2979C65.9495 35.3214 65.6284 35.2979 65.2838 35.2979V38.6734H63.3416V30.2934H65.2682V33.6689C65.7146 33.6689 66.1375 33.6767 66.5604 33.661C66.6466 33.661 66.7562 33.5436 66.811 33.4574C67.4611 32.4784 68.1111 31.4916 68.7455 30.5048C68.8551 30.3325 68.9648 30.262 69.1684 30.2699C69.748 30.2855 70.3275 30.2699 70.954 30.2699C70.8679 30.403 70.8209 30.497 70.7582 30.5831C69.9594 31.7501 69.1684 32.9248 68.3617 34.0839C68.2364 34.2641 68.2286 34.3894 68.3539 34.5773C69.1919 35.8383 70.0221 37.107 70.8522 38.3679C70.9149 38.4541 70.9697 38.5481 71.0559 38.689H71.0715Z" fill="black"/>
<path d="M119.511 20.7462V24.1217H117.576V15.7339H119.487V19.1172C119.957 19.1172 120.396 19.1251 120.834 19.1094C120.905 19.1094 120.983 18.9919 121.03 18.9214C121.68 17.9268 122.338 16.94 122.98 15.9375C123.082 15.7809 123.192 15.7104 123.387 15.7182C123.975 15.7339 124.554 15.7182 125.204 15.7182C124.265 17.0966 123.348 18.4437 122.432 19.7829C123.38 21.2318 124.327 22.665 125.29 24.1452C124.554 24.1452 123.873 24.1452 123.192 24.1374C123.105 24.1374 122.988 24.0278 122.933 23.9416C122.283 22.9626 121.641 21.9758 121.006 20.9812C120.897 20.8167 120.787 20.7306 120.584 20.7462C120.239 20.7619 119.894 20.7462 119.503 20.7462H119.511Z" fill="black"/>
<path d="M62.9033 15.7263H64.8378V19.1096C65.292 19.1096 65.7149 19.1253 66.1378 19.1018C66.224 19.1018 66.3258 18.9843 66.3885 18.8903C67.0385 17.9114 67.6807 16.9246 68.3151 15.9299C68.4247 15.7576 68.5422 15.695 68.7458 15.7028C69.3254 15.7185 69.9049 15.7028 70.5471 15.7028C69.6073 17.089 68.691 18.4204 67.7747 19.7675C68.7223 21.2085 69.6621 22.6417 70.6411 24.1298C69.8971 24.1298 69.2079 24.1298 68.5265 24.122C68.4404 24.122 68.3386 24.0045 68.2759 23.9105C67.6259 22.9315 66.9837 21.9447 66.3493 20.9501C66.2475 20.7856 66.1378 20.723 65.942 20.7308C65.5896 20.7465 65.2372 20.7308 64.8534 20.7308V24.0985H62.9033V15.7106V15.7263Z" fill="black"/>
<path d="M109.072 1.22172C110.584 1.22172 112.08 1.15907 113.568 1.23739C114.954 1.31571 116.003 2.22419 116.301 3.39113C116.763 5.2316 115.737 6.81362 113.834 7.15821C113.45 7.2287 113.051 7.25219 112.651 7.26786C112.119 7.28352 111.586 7.26786 111.015 7.26786V9.5704H109.064V1.21389L109.072 1.22172ZM111.022 2.72543V5.61535C111.766 5.61535 112.503 5.67018 113.223 5.59969C113.967 5.5292 114.39 4.98881 114.406 4.26829C114.421 3.48511 114.053 2.94472 113.278 2.83507C112.542 2.73326 111.782 2.75675 111.022 2.72543Z" fill="black"/>
<path d="M73.9538 38.6889H72.0115V30.2697C72.0898 30.2697 72.1681 30.2697 72.2386 30.2697C73.4682 30.2697 74.6978 30.2619 75.9274 30.2697C76.7105 30.2775 77.4624 30.4577 78.1203 30.9119C79.1697 31.6403 79.483 32.6819 79.2872 33.8802C79.0992 35.0628 78.3396 35.799 77.2196 36.1279C76.687 36.2845 76.1075 36.3158 75.5514 36.355C75.0345 36.3942 74.5098 36.3628 73.9538 36.3628V38.6654V38.6889ZM73.9694 31.8831V34.726C74.7056 34.726 75.4261 34.773 76.1388 34.7103C76.687 34.6633 77.1178 34.3501 77.2901 33.7784C77.5799 32.7915 77.0082 31.9535 75.9587 31.8831C75.3087 31.8439 74.6508 31.8831 73.9694 31.8831Z" fill="black"/>
<path d="M79.2639 38.6895C79.4754 38.2118 79.6633 37.7889 79.8513 37.366C80.8773 35.0869 81.9032 32.8079 82.9214 30.5288C83.0153 30.3252 83.1171 30.2547 83.3364 30.2625C83.822 30.2782 84.3076 30.2625 84.7931 30.2782C84.8871 30.2782 85.0203 30.3565 85.0594 30.4348C86.289 33.1446 87.5029 35.8544 88.7247 38.5642C88.7404 38.5956 88.7482 38.6347 88.7639 38.6974C88.1217 38.6974 87.4951 38.6974 86.8764 38.6895C86.7981 38.6895 86.6806 38.5721 86.6415 38.4859C86.4378 38.0238 86.242 37.5618 86.0619 37.0919C85.9992 36.9274 85.9053 36.8804 85.733 36.8804C84.5817 36.8804 83.4383 36.8882 82.287 36.8804C82.099 36.8804 82.005 36.9352 81.9346 37.1075C81.7544 37.5696 81.5586 38.016 81.3785 38.4781C81.3158 38.6347 81.2375 38.7052 81.0496 38.6974C80.4778 38.6817 79.9061 38.6974 79.2639 38.6974V38.6895ZM85.3414 35.3845C84.9028 34.3194 84.4642 33.2856 84.0021 32.1735C83.5401 33.2856 83.1093 34.3194 82.6707 35.3845H85.3414Z" fill="black"/>
<path d="M125.393 2.45946C124.923 2.88238 124.516 3.2583 124.085 3.64989C123.364 2.85105 122.479 2.55344 121.438 2.71008C120.788 2.81189 120.24 3.10167 119.817 3.61856C118.947 4.67585 119.073 6.438 120.052 7.35432C120.929 8.16883 122.808 8.46643 124.085 7.04888C124.5 7.42481 124.907 7.80073 125.338 8.19232C124.852 8.8032 124.234 9.18696 123.529 9.44541C121.493 10.2051 119.104 9.4924 117.961 7.80856C116.488 5.63916 117.185 1.86424 120.78 1.12023C121.978 0.869608 123.153 0.987085 124.234 1.6058C124.641 1.84075 124.986 2.16968 125.385 2.46729L125.393 2.45946Z" fill="black"/>
<path d="M91.975 2.49056C91.5364 2.88998 91.1291 3.25807 90.7062 3.64966C90.0718 2.93697 89.2887 2.60804 88.3488 2.67069C87.6283 2.71768 87.0018 2.97613 86.5162 3.52435C85.6077 4.55032 85.6547 6.28897 86.5945 7.26794C87.4169 8.12944 89.3826 8.52886 90.7219 7.04865C91.1291 7.42458 91.5364 7.79267 91.9906 8.19993C91.7635 8.41138 91.5599 8.62284 91.3328 8.80297C89.3513 10.3145 86.2264 9.92292 84.7541 8.0198C83.0781 5.86606 83.7203 1.86402 87.4247 1.11217C88.8579 0.82239 90.2285 1.03385 91.4189 1.958C91.6225 2.11463 91.787 2.3026 91.9906 2.49056H91.975Z" fill="black"/>
<path d="M62.3942 30.2698C62.3315 30.3873 62.2924 30.4734 62.2532 30.5596C61.1176 32.6585 59.982 34.7496 58.8542 36.8485C58.5175 37.4672 58.118 38.0232 57.515 38.407C56.5752 39.01 55.604 38.9944 54.5781 38.5871C54.7347 38.0937 54.8835 37.6238 55.0402 37.1304C55.2516 37.1696 55.4474 37.2087 55.6354 37.2401C56.2541 37.334 56.7945 37.0678 57.0764 36.5274C57.1156 36.4569 57.0764 36.3237 57.0294 36.2454C56.1679 34.6399 55.2986 33.0422 54.4371 31.4445C54.2335 31.0686 54.0377 30.7005 53.8027 30.2776C54.4998 30.2776 55.1576 30.2776 55.8077 30.2854C55.8782 30.2854 55.9643 30.4186 56.0035 30.5047C56.6613 31.8126 57.3114 33.1205 57.9692 34.4285C58.0241 34.5303 58.0789 34.6321 58.1572 34.773C58.2277 34.6477 58.2747 34.5616 58.3217 34.4676C58.9952 33.1597 59.6766 31.8518 60.3344 30.5361C60.4284 30.3481 60.5302 30.2619 60.7574 30.2698C61.2899 30.2854 61.8225 30.2698 62.3942 30.2698Z" fill="black"/>
<path d="M130.311 9.57877H128.384V2.77296H125.69V1.18311H133.005V2.75729H130.311V9.58661V9.57877Z" fill="black"/>
<path d="M95.0057 2.75693H92.3115V1.18274H99.6264V2.75693H96.9323V9.57057H95.0057V2.75693Z" fill="black"/>
<path d="M115.439 24.1298H113.528V15.7263H115.439V24.1298Z" fill="black"/>
<path d="M80.4155 1.1748H82.3343V9.57047H80.4155V1.1748Z" fill="black"/>
<path d="M91.7945 38.6736H89.8679V30.2858H91.7945V38.6736Z" fill="black"/>
<path d="M66.4429 1.1748H68.3538V9.57047H66.4429V1.1748Z" fill="black"/>
<path d="M92.0531 29.5101C91.5753 29.5101 91.2307 29.1576 91.2307 28.6877C91.2307 28.21 91.6066 27.8497 92.0844 27.8575C92.5543 27.8732 92.9145 28.2256 92.9145 28.6877C92.9145 29.1655 92.5465 29.5101 92.0531 29.5101Z" fill="black"/>
<path d="M90.4401 28.6802C90.4401 29.1658 90.1112 29.5026 89.6335 29.5104C89.1401 29.5104 88.772 29.1736 88.772 28.6959C88.772 28.226 89.1401 27.8579 89.6178 27.8657C90.0955 27.8657 90.4401 28.2103 90.4401 28.6881V28.6802Z" fill="black"/>
</svg>
