<?xml version="1.0" encoding="UTF-8"?>
<svg id="Layer_1" data-name="Layer 1" xmlns="http://www.w3.org/2000/svg" viewBox="0 0 1489.68 534.26">
  <defs>
    <style>
      .cls-1, .cls-2, .cls-3 {
        stroke-width: 0px;
      }

      .cls-2 {
        fill: #1367ea;
      }

      .cls-3 {
        fill: #fccc00;
      }
    </style>
  </defs>
  <rect class="cls-2" x="61.8" y="129.26" width="92.37" height="248.9"/>
  <rect class="cls-2" x="248.31" y="129.26" width="92.37" height="248.9"/>
  <rect class="cls-2" x="178.15" y="129.26" width="46.18" height="248.9"/>
  <rect class="cls-3" x="364.66" y="129.26" width="92.37" height="248.9"/>
  <rect class="cls-3" x="551.16" y="129.26" width="92.37" height="248.9"/>
  <rect class="cls-3" x="481" y="129.26" width="46.18" height="248.9"/>
  <g fill="#fff">
    <path class="cls-1" d="M803.74,130.71h23.24v103.38h-17.04v-82.56l-42.82,82.56h-9.16l-42.68-83.84v83.84h-16.91v-103.38h24.09l40.29,78.6,40.99-78.6Z"/>
    <path class="cls-1" d="M957.54,234.09h-18.31l-11.55-25.92h-50.71l-11.41,25.92h-18.18l46.49-103.38h16.62l47.04,103.38ZM902.19,149.4l-19.16,44.61h38.6l-19.44-44.61Z"/>
    <path class="cls-1" d="M1027.53,130.71c11.46,0,21.39,2.12,29.8,6.37,8.4,4.25,14.81,10.08,19.23,17.49,4.42,7.42,6.62,15.89,6.62,25.42v4.82c0,9.54-2.2,18.01-6.62,25.42-4.41,7.41-10.83,13.24-19.23,17.49-8.4,4.25-18.33,6.37-29.8,6.37h-49.72v-103.38h49.72ZM1065.85,180.13c0-6.89-1.55-12.91-4.64-18.06-3.1-5.14-7.73-9.15-13.88-12.04-6.15-2.88-13.69-4.32-22.61-4.32h-29.87v73.36h29.87c8.92,0,16.46-1.44,22.61-4.32,6.15-2.88,10.78-6.89,13.88-12.04,3.1-5.14,4.64-11.16,4.64-18.06v-4.53Z"/>
    <path class="cls-1" d="M1108.19,234.09v-103.38h84.94v14.73h-68.03v29.03h62.12v14.45h-62.12v30.31h70.71v14.87h-87.62Z"/>
    <path class="cls-1" d="M1291.03,234.09h-17.04v-103.38h17.04v103.38Z"/>
    <path class="cls-1" d="M1407.56,130.71h16.34v103.38h-14.79l-71.69-81.01v81.01h-16.2v-103.38h18.6l67.75,77.04v-77.04Z"/>
    <path class="cls-1" d="M698.77,333.83v-60.76h17.05v58.77c0,10.29,2.67,18.01,8.03,23.15,5.35,5.15,13.61,7.72,24.79,7.72s19.59-2.52,24.94-7.58c5.35-5.05,8.03-12.82,8.03-23.3v-58.77h17.04v60.76c0,9.16-1.9,17.02-5.7,23.58-3.8,6.56-9.44,11.66-16.91,15.29s-16.6,5.45-27.4,5.45-19.9-1.82-27.32-5.45-13.03-8.73-16.84-15.29c-3.8-6.56-5.71-14.42-5.71-23.58Z"/>
    <path class="cls-1" d="M903.12,376.46l-41.13-51.98-23.8,21.67v30.31h-16.91v-103.38h16.91v53.53l59.02-53.53h23.8l-45.64,41.21,49.3,62.17h-21.55Z"/>
    <path class="cls-1" d="M1032.72,363.57c0,3.02.32,5.5.98,7.43.66,1.94,1.88,3.75,3.66,5.45h-18.03c-1.4-1.7-2.44-3.54-3.09-5.52-.67-1.98-.99-4.43-.99-7.36v-13.03c0-4.53-.44-7.95-1.34-10.27-.89-2.31-2.54-3.92-4.93-4.82-2.39-.9-5.89-1.35-10.49-1.35h-42.11v42.35h-16.91v-103.38h58.31c8.36,0,15.42,1.2,21.2,3.61,5.78,2.41,10.05,5.73,12.82,9.98,2.77,4.25,4.15,9.12,4.15,14.59,0,4.91-1.1,9.16-3.31,12.75-2.21,3.59-5.03,6.37-8.45,8.35-3.43,1.99-7.02,3.35-10.78,4.11v.28c6.39.95,11.2,3.26,14.44,6.94,3.23,3.68,4.86,9.21,4.86,16.57v13.31ZM996.65,319.53c7.7,0,13.32-1.37,16.84-4.11,3.52-2.73,5.28-6.65,5.28-11.75s-1.74-9.04-5.21-11.82c-3.48-2.79-9.02-4.18-16.62-4.18h-40.57v31.86h40.28Z"/>
    <path class="cls-1" d="M1159.22,376.46h-18.31l-11.55-25.92h-50.71l-11.41,25.92h-18.18l46.49-103.38h16.62l47.04,103.38ZM1103.86,291.77l-19.16,44.61h38.6l-19.44-44.61Z"/>
    <path class="cls-1" d="M1190.27,376.46h-17.04v-103.38h17.04v103.38Z"/>
    <path class="cls-1" d="M1300.46,273.08h16.34v103.38h-14.79l-71.69-81.01v81.01h-16.2v-103.38h18.6l67.75,77.04v-77.04Z"/>
    <path class="cls-1" d="M1340.41,376.46v-103.38h84.94v14.73h-68.03v29.03h62.12v14.45h-62.12v30.31h70.71v14.87h-87.62Z"/>
  </g>
</svg>