<?xml version="1.0" encoding="UTF-8"?>
<svg id="Layer_1" data-name="Layer 1" xmlns="http://www.w3.org/2000/svg" viewBox="0 0 1740.05 534.26">
  <defs>
    <style>
      .cls-1, .cls-2, .cls-3 {
        stroke-width: 0px;
      }

      .cls-2 {
        fill: #1367ea;
      }

      .cls-3 {
        fill: #fccc00;
      }
    </style>
  </defs>
  <g>
    <g>
      <path class="cls-1" d="M715.33,194.25c.28,4.99,1.65,9.21,4.13,12.68,2.48,3.46,6.31,6.14,11.5,8.03,5.19,1.89,12.01,2.84,20.46,2.84,12.31,0,21.04-1.46,26.18-4.36,5.14-2.91,7.72-6.81,7.72-11.71,0-3.41-.83-6.12-2.48-8.1-1.65-1.99-4.75-3.55-9.3-4.71-4.55-1.15-11.05-1.73-19.5-1.73h-19.7v-14.55h19.7c7.44,0,13.18-.53,17.22-1.59,4.04-1.06,6.82-2.61,8.34-4.64,1.52-2.03,2.27-4.66,2.27-7.9,0-4.99-2.41-8.96-7.23-11.91-4.82-2.95-12.79-4.43-23.91-4.43-7.99,0-14.47.92-19.43,2.77-4.96,1.85-8.61,4.5-10.96,7.96-2.34,3.46-3.74,7.74-4.2,12.81h-17.22c.64-11.73,5.19-20.99,13.64-27.78,8.45-6.79,21.22-10.18,38.31-10.18,10.93,0,19.98,1.34,27.14,4.02,7.17,2.68,12.42,6.19,15.78,10.53,3.35,4.34,5.03,9.14,5.03,14.41,0,6.56-2.09,11.71-6.27,15.44-4.18,3.74-9.53,6.21-16.05,7.41v.28c7.35,1.3,13.5,3.81,18.46,7.55,4.96,3.74,7.44,9.21,7.44,16.42,0,5.26-1.72,10.02-5.17,14.27-3.44,4.25-8.96,7.67-16.54,10.25-7.58,2.59-17.39,3.88-29.42,3.88-17.82,0-31-3.35-39.55-10.04-8.54-6.7-13-16-13.37-27.92h16.95Z"/>
      <path class="cls-1" d="M876.46,129.42c8.36,0,15.34,1.23,20.94,3.67,5.6,2.45,9.8,5.91,12.61,10.39,2.8,4.48,4.2,9.77,4.2,15.86s-1.4,11.22-4.2,15.65c-2.8,4.43-7.01,7.92-12.61,10.46-5.6,2.54-12.59,3.81-20.94,3.81h-38.86v41.28h-16.54v-101.13h55.39ZM876.04,174.86c7.35,0,12.72-1.34,16.12-4.02,3.4-2.68,5.1-6.51,5.1-11.5s-1.7-8.82-5.1-11.5c-3.4-2.68-8.77-4.02-16.12-4.02h-38.44v31.03h38.44Z"/>
      <path class="cls-1" d="M983.84,232.21c-11.48,0-21.36-2.08-29.62-6.23-8.27-4.16-14.56-9.97-18.88-17.46-4.32-7.48-6.48-16.3-6.48-26.46v-4.16c0-10.16,2.16-18.98,6.48-26.46,4.32-7.48,10.61-13.3,18.88-17.46,8.27-4.16,18.14-6.23,29.62-6.23s21.63,2.08,29.9,6.23c8.27,4.16,14.56,9.97,18.88,17.46,4.32,7.48,6.48,16.3,6.48,26.46v4.16c0,10.16-2.16,18.98-6.48,26.46-4.32,7.48-10.61,13.3-18.88,17.46-8.27,4.16-18.23,6.23-29.9,6.23ZM984.11,217.39c12.13,0,21.47-3.12,28.04-9.35,6.57-6.24,9.85-14.98,9.85-26.25v-3.6c0-11.36-3.26-20.13-9.78-26.32-6.52-6.19-15.89-9.28-28.11-9.28s-21.89,3.12-28.45,9.35c-6.57,6.24-9.85,14.99-9.85,26.25v3.6c0,11.27,3.28,20.02,9.85,26.25,6.57,6.23,16.05,9.35,28.45,9.35Z"/>
      <path class="cls-1" d="M1114.24,172.22c12.49,0,21.88,2.63,28.18,7.9,6.29,5.26,9.44,12.33,9.44,21.19s-3.15,16.07-9.44,21.33c-6.29,5.26-15.69,7.9-28.18,7.9h-55.67v-101.13h85.43v14.41h-69.03v28.4h39.27ZM1113.83,216.28c7.53,0,12.97-1.32,16.33-3.95,3.35-2.63,5.03-6.35,5.03-11.15s-1.68-8.5-5.03-11.08c-3.35-2.59-8.8-3.88-16.33-3.88h-38.86v30.06h38.86Z"/>
      <path class="cls-1" d="M1185.26,129.42h86.95v101.13h-16.67v-86.45h-54.29l-1.93,43.92c-.28,10.71-1.63,19.28-4.06,25.7-2.44,6.42-5.7,11.02-9.78,13.79-4.09,2.77-9.07,4.16-14.95,4.16-1.65,0-3.22-.12-4.69-.35-1.47-.23-2.71-.48-3.72-.76v-14.96c.18,0,.39.02.62.07.23.05.44.07.62.07,2.02.09,3.63.14,4.82.14,3.22,0,5.83-.78,7.85-2.36,2.02-1.57,3.63-4.5,4.82-8.79,1.19-4.29,1.93-10.37,2.21-18.22l2.2-57.08Z"/>
      <path class="cls-1" d="M1296.45,230.55v-101.13h83.09v14.41h-66.55v28.4h60.77v14.13h-60.77v29.65h69.17v14.55h-85.71Z"/>
      <path class="cls-1" d="M1483.16,129.42h16.81v101.13h-16.81v-43.22h-66.42v43.22h-16.67v-101.13h16.67v43.22h66.42v-43.22Z"/>
      <path class="cls-1" d="M1574.43,232.21c-11.48,0-21.36-2.08-29.62-6.23-8.27-4.16-14.56-9.97-18.88-17.46-4.32-7.48-6.48-16.3-6.48-26.46v-4.16c0-10.16,2.16-18.98,6.48-26.46,4.32-7.48,10.61-13.3,18.88-17.46,8.27-4.16,18.14-6.23,29.62-6.23s21.63,2.08,29.9,6.23c8.27,4.16,14.56,9.97,18.88,17.46,4.32,7.48,6.48,16.3,6.48,26.46v4.16c0,10.16-2.16,18.98-6.48,26.46-4.32,7.48-10.61,13.3-18.88,17.46-8.27,4.16-18.24,6.23-29.9,6.23ZM1574.71,217.39c12.13,0,21.47-3.12,28.04-9.35,6.57-6.24,9.85-14.98,9.85-26.25v-3.6c0-11.36-3.26-20.13-9.78-26.32-6.52-6.19-15.89-9.28-28.11-9.28s-21.89,3.12-28.45,9.35c-6.57,6.24-9.85,14.99-9.85,26.25v3.6c0,11.27,3.28,20.02,9.85,26.25,6.57,6.23,16.05,9.35,28.45,9.35Z"/>
    </g>
    <g>
      <path class="cls-1" d="M769.48,327.45c6.34,1.2,11.92,3.81,16.74,7.83,4.82,4.02,7.23,9.4,7.23,16.14,0,4.99-1.38,9.52-4.13,13.58-2.76,4.07-7.05,7.25-12.88,9.56-5.83,2.31-13.16,3.46-21.98,3.46h-56.08v-101.13h56.08c7.81,0,14.44,1.16,19.91,3.46,5.46,2.31,9.53,5.47,12.19,9.49,2.66,4.02,4,8.57,4,13.65,0,4.34-1.03,8.17-3.1,11.5-2.07,3.33-4.71,6.01-7.92,8.03-3.22,2.03-6.57,3.42-10.06,4.16v.27ZM753.91,291.02h-39.13v29.78h40.23c6.34,0,11.07-1.32,14.19-3.95,3.12-2.63,4.68-6.26,4.68-10.87s-1.58-8.49-4.75-11.08c-3.17-2.58-8.25-3.88-15.23-3.88ZM753.91,363.89c8.27,0,14.14-1.27,17.64-3.81,3.49-2.54,5.23-6.25,5.23-11.15,0-4.62-1.74-8.24-5.23-10.87-3.49-2.63-9-3.95-16.54-3.95h-40.23v29.78h39.13Z"/>
      <path class="cls-1" d="M940.89,276.89h18.74l-42.85,75.78c-3.68,6.65-7.14,11.87-10.4,15.65-3.26,3.79-6.94,6.63-11.02,8.52-4.09,1.89-9.12,2.84-15.09,2.84-4.22,0-8.36-.55-12.4-1.66v-14.55c3.95.55,7.39.83,10.33.83,3.12,0,5.72-.39,7.79-1.18,2.07-.78,3.9-2.03,5.51-3.74,1.61-1.71,3.33-4.18,5.17-7.41l-43.13-75.09h19.7l33.9,61.37,33.76-61.37Z"/>
      <path class="cls-1" d="M1055.07,378.02l-40.24-50.84-23.29,21.19v29.65h-16.54v-101.13h16.54v52.37l57.73-52.37h23.29l-44.65,40.31,48.23,60.82h-21.08Z"/>
      <path class="cls-1" d="M1147.65,276.89c8.36,0,15.34,1.23,20.94,3.67,5.6,2.45,9.81,5.91,12.61,10.39,2.8,4.48,4.2,9.77,4.2,15.86s-1.4,11.22-4.2,15.65c-2.8,4.43-7.01,7.92-12.61,10.46-5.6,2.54-12.59,3.81-20.94,3.81h-38.86v41.28h-16.54v-101.13h55.39ZM1147.24,322.33c7.35,0,12.72-1.34,16.12-4.02,3.4-2.68,5.1-6.51,5.1-11.5s-1.7-8.82-5.1-11.5c-3.4-2.68-8.77-4.02-16.12-4.02h-38.44v31.03h38.44Z"/>
      <path class="cls-1" d="M1290.1,378.02h-17.91l-11.3-25.35h-49.61l-11.16,25.35h-17.77l45.47-101.13h16.26l46.02,101.13ZM1235.95,295.18l-18.74,43.64h37.76l-19.02-43.64Z"/>
      <path class="cls-1" d="M1309.83,263.1c-1.84,1.8-4.32,2.7-7.44,2.7s-5.6-.9-7.44-2.7c-1.84-1.8-2.75-4.18-2.75-7.13s.92-5.17,2.75-6.93c1.84-1.75,4.32-2.63,7.44-2.63s5.6.88,7.44,2.63c1.84,1.76,2.75,4.07,2.75,6.93s-.92,5.34-2.75,7.13ZM1325.81,276.89h-16.67v101.13h16.67v-101.13ZM1340.21,263.1c-1.88,1.8-4.34,2.7-7.37,2.7-3.22,0-5.74-.9-7.58-2.7-1.84-1.8-2.75-4.18-2.75-7.13s.92-5.17,2.75-6.93c1.84-1.75,4.36-2.63,7.58-2.63s5.6.88,7.44,2.63c1.84,1.76,2.76,4.07,2.76,6.93s-.94,5.34-2.83,7.13Z"/>
      <path class="cls-1" d="M1433.83,276.89h16.81v101.13h-16.81v-43.22h-66.42v43.22h-16.67v-101.13h16.67v43.22h66.42v-43.22Z"/>
      <path class="cls-1" d="M1491.52,378.02h-16.67v-101.13h16.67v101.13Z"/>
    </g>
  </g>
  <rect class="cls-2" x="61.8" y="129.26" width="92.37" height="248.9"/>
  <rect class="cls-2" x="248.31" y="129.26" width="92.37" height="248.9"/>
  <rect class="cls-2" x="178.15" y="129.26" width="46.18" height="248.9"/>
  <rect class="cls-3" x="364.66" y="129.26" width="92.37" height="248.9"/>
  <rect class="cls-3" x="551.16" y="129.26" width="92.37" height="248.9"/>
  <rect class="cls-3" x="481" y="129.26" width="46.18" height="248.9"/>
</svg>