<svg width="587" height="514" viewBox="0 0 587 514" fill="none" xmlns="http://www.w3.org/2000/svg">
<g clip-path="url(#clip0_384_7330)">
<path d="M92.7722 0H0V250.025H92.7722V0Z" fill="#1367EA"/>
<path d="M280.12 0H187.348V250.025H280.12V0Z" fill="#1367EA"/>
<path d="M163.247 0H116.861V250.025H163.247V0Z" fill="#1367EA"/>
<path d="M396.989 0H304.217V250.025H396.989V0Z" fill="#FCCC00"/>
<path d="M584.38 0H491.607V250.025H584.38V0Z" fill="#FCCC00"/>
<path d="M467.517 0H421.131V250.025H467.517V0Z" fill="#FCCC00"/>
<path d="M86.0931 292.44H104.729V375.376H91.0565V309.136L56.7182 375.376H49.3632L15.1151 308.098V375.376H1.5332V292.44H20.8457L53.1535 355.522L86.0479 292.44H86.0931Z" fill="white"/>
<path d="M209.503 375.421H194.793L185.543 354.619H144.842L135.682 375.421H121.107L158.424 292.485H171.78L209.548 375.421H209.503ZM165.102 307.466L149.715 343.248H180.669L165.057 307.466H165.102Z" fill="white"/>
<path d="M265.677 292.44C274.883 292.44 282.824 294.155 289.593 297.539C296.316 300.968 301.46 305.616 305.024 311.572C308.589 317.528 310.349 324.342 310.349 331.968V335.848C310.349 343.519 308.589 350.288 305.024 356.244C301.46 362.2 296.316 366.848 289.593 370.277C282.869 373.706 274.883 375.376 265.677 375.376H225.789V292.44H265.677ZM296.406 332.103C296.406 326.553 295.188 321.725 292.661 317.619C290.179 313.513 286.479 310.264 281.516 307.963C276.597 305.661 270.551 304.488 263.376 304.488H239.416V363.373H263.376C270.551 363.373 276.597 362.2 281.516 359.899C286.434 357.597 290.179 354.394 292.661 350.242C295.143 346.136 296.406 341.263 296.406 335.758V332.103Z" fill="white"/>
<path d="M330.383 375.421V292.485H398.518V304.308H343.92V327.591H393.78V339.187H343.92V363.509H400.639V375.421H330.338H330.383Z" fill="white"/>
<path d="M477.121 375.421H463.449V292.485H477.121V375.421Z" fill="white"/>
<path d="M570.619 292.44H583.749V375.376H571.882L514.351 310.354V375.376H501.355V292.44H516.291L570.664 354.258V292.44H570.619Z" fill="white"/>
<path d="M1.84961 455.424V406.691H15.5218V453.844C15.5218 462.102 17.6877 468.284 21.9743 472.435C26.261 476.586 32.894 478.617 41.8734 478.617C50.8528 478.617 57.5761 476.586 61.8627 472.525C66.1494 468.464 68.3153 462.237 68.3153 453.844V406.691H81.9875V455.424C81.9875 462.779 80.4533 469.096 77.4301 474.33C74.3617 479.609 69.8495 483.67 63.8481 486.603C57.8468 489.536 50.537 490.98 41.8734 490.98C33.2099 490.98 25.9 489.536 19.9438 486.603C13.9876 483.67 9.47532 479.609 6.45211 474.33C3.38376 469.051 1.89474 462.779 1.89474 455.424H1.84961Z" fill="white"/>
<path d="M165.866 489.627L132.882 447.933L113.795 465.306V489.627H100.213V406.691H113.795V449.648L161.174 406.691H180.261L143.621 439.766L183.193 489.672H165.911L165.866 489.627Z" fill="white"/>
<path d="M269.831 479.293C269.831 481.73 270.102 483.715 270.599 485.25C271.14 486.784 272.088 488.273 273.532 489.627H259.047C257.919 488.273 257.107 486.784 256.565 485.204C256.024 483.625 255.753 481.64 255.753 479.293V468.825C255.753 465.17 255.392 462.463 254.67 460.568C253.948 458.718 252.64 457.409 250.7 456.687C248.759 455.965 245.962 455.604 242.262 455.604H208.465V489.581H194.883V406.646H241.675C248.398 406.646 254.039 407.594 258.686 409.534C263.334 411.474 266.763 414.136 268.974 417.566C271.185 420.995 272.313 424.876 272.313 429.252C272.313 433.178 271.411 436.607 269.651 439.495C267.891 442.383 265.635 444.594 262.883 446.219C260.13 447.798 257.242 448.926 254.219 449.513V449.738C259.363 450.505 263.198 452.355 265.816 455.288C268.433 458.221 269.696 462.688 269.696 468.599V479.293H269.831ZM240.908 443.962C247.09 443.962 251.602 442.879 254.4 440.668C257.242 438.457 258.641 435.344 258.641 431.238C258.641 427.132 257.242 423.973 254.445 421.762C251.647 419.506 247.225 418.423 241.088 418.423H208.555V444.008H240.863L240.908 443.962Z" fill="white"/>
<path d="M371.354 489.627H356.644L347.394 468.825H306.694L297.534 489.627H282.959L320.275 406.691H333.632L371.399 489.627H371.354ZM326.908 421.672L311.522 457.454H342.476L326.863 421.672H326.908Z" fill="white"/>
<path d="M396.262 489.627H382.59V406.691H396.262V489.627Z" fill="white"/>
<path d="M484.709 406.691H497.839V489.627H485.972L428.441 424.605V489.627H415.445V406.691H430.381L484.754 468.509V406.691H484.709Z" fill="white"/>
<path d="M516.744 489.627V406.691H584.88V418.513H530.281V441.797H580.142V453.393H530.281V477.714H587V489.627H516.699H516.744Z" fill="white"/>
</g>
<defs>
<clipPath id="clip0_384_7330">
<rect width="587" height="514" fill="white"/>
</clipPath>
</defs>
</svg>
