<svg width="203" height="58" viewBox="0 0 203 58" fill="none" xmlns="http://www.w3.org/2000/svg">
<path d="M11.9083 0H0V32.2451H11.9083V0Z" fill="#1367EA"/>
<path d="M35.9538 0H24.0455V32.2451H35.9538V0Z" fill="#1367EA"/>
<path d="M20.9543 0H14.9995V32.2451H20.9543V0Z" fill="#1367EA"/>
<path d="M50.9545 0H39.0463V32.2451H50.9545V0Z" fill="#FCCC00"/>
<path d="M75 0H63.0917V32.2451H75V0Z" fill="#FCCC00"/>
<path d="M60.0005 0H54.0458V32.2451H60.0005V0Z" fill="#FCCC00"/>
<path d="M87.1449 8.44587C87.1804 9.07863 87.3535 9.61648 87.6684 10.0555C87.9813 10.4944 88.4673 10.8365 89.1226 11.0758C89.7779 11.317 90.6398 11.4357 91.7103 11.4357C93.2669 11.4357 94.3689 11.2498 95.0202 10.882C95.6696 10.5122 95.9963 10.0159 95.9963 9.39501C95.9963 8.96197 95.892 8.6179 95.6834 8.36677C95.4748 8.11367 95.0832 7.91593 94.5066 7.76762C93.932 7.6213 93.1094 7.54814 92.0409 7.54814H89.5496V5.70126H92.0409C92.9815 5.70126 93.7077 5.63403 94.2173 5.49956C94.729 5.3651 95.0793 5.16737 95.2721 4.91031C95.463 4.65325 95.5594 4.31709 95.5594 3.90777C95.5594 3.27501 95.2544 2.77078 94.6444 2.39508C94.0343 2.01937 93.0268 1.83152 91.6218 1.83152C90.6123 1.83152 89.7936 1.94819 89.1659 2.1835C88.5382 2.4188 88.0777 2.75496 87.7806 3.19591C87.4854 3.63687 87.3083 4.17868 87.2492 4.8233H85.0708C85.1515 3.33236 85.7261 2.15779 86.7947 1.29565C87.8632 0.433513 89.4768 0.00244141 91.6375 0.00244141C93.0189 0.00244141 94.1642 0.1725 95.0694 0.51261C95.9746 0.85272 96.6397 1.2996 97.0648 1.84932C97.4879 2.40101 97.7004 3.01004 97.7004 3.68038C97.7004 4.51285 97.4367 5.16736 96.9074 5.64194C96.378 6.11651 95.7031 6.43091 94.8785 6.58317V6.61876C95.8073 6.78289 96.5866 7.10322 97.2124 7.5778C97.8401 8.05237 98.153 8.74841 98.153 9.66394C98.153 10.3323 97.9346 10.9374 97.4997 11.4772C97.0648 12.017 96.3682 12.452 95.4098 12.7803C94.4515 13.1085 93.2118 13.2727 91.6906 13.2727C89.4375 13.2727 87.7707 12.8475 86.6904 11.9972C85.61 11.147 85.0472 9.9645 85 8.4518H87.1449V8.44587Z" fill="white"/>
<path d="M107.514 0.209717C108.571 0.209717 109.454 0.365933 110.163 0.676382C110.871 0.986832 111.402 1.42779 111.757 1.9953C112.111 2.56479 112.288 3.23511 112.288 4.01025C112.288 4.78538 112.111 5.43595 111.757 5.9995C111.402 6.56306 110.871 7.00598 110.163 7.3283C109.454 7.65061 108.571 7.81276 107.514 7.81276H102.602V13.0568H100.512V0.209717H107.516H107.514ZM107.461 5.9817C108.39 5.9817 109.069 5.81165 109.5 5.47154C109.929 5.13143 110.145 4.64301 110.145 4.01025C110.145 3.37749 109.931 2.88907 109.5 2.54896C109.071 2.20885 108.39 2.0388 107.461 2.0388H102.6V5.9817H107.461Z" fill="white"/>
<path d="M121.09 13.2663C119.638 13.2663 118.39 13.0033 117.345 12.4753C116.3 11.9474 115.505 11.2078 114.958 10.2587C114.413 9.30952 114.14 8.18835 114.14 6.89711V6.36916C114.14 5.07792 114.413 3.95873 114.958 3.0076C115.503 2.05648 116.3 1.31891 117.345 0.790953C118.39 0.262992 119.638 0 121.09 0C122.542 0 123.825 0.262992 124.87 0.790953C125.915 1.31891 126.71 2.05846 127.257 3.0076C127.802 3.95675 128.076 5.07792 128.076 6.36916V6.89711C128.076 8.18835 127.802 9.30754 127.257 10.2587C126.712 11.2098 125.915 11.9474 124.87 12.4753C123.825 13.0033 122.566 13.2663 121.09 13.2663ZM121.125 11.3838C122.658 11.3838 123.839 10.9883 124.67 10.1954C125.5 9.40246 125.915 8.29117 125.915 6.85954V6.40277C125.915 4.95928 125.504 3.84601 124.677 3.05901C123.853 2.27399 122.668 1.88049 121.123 1.88049C119.579 1.88049 118.357 2.27597 117.526 3.0689C116.696 3.86183 116.281 4.97312 116.281 6.40475V6.86152C116.281 8.29315 116.696 9.40444 117.526 10.1974C118.357 10.9883 119.555 11.3858 121.123 11.3858L121.125 11.3838Z" fill="white"/>
<path d="M137.575 5.64752C139.153 5.64752 140.341 5.9817 141.136 6.65006C141.931 7.31841 142.329 8.21614 142.329 9.34325C142.329 10.4704 141.931 11.3859 141.136 12.0542C140.341 12.7226 139.153 13.0568 137.575 13.0568H130.538V0.209717H141.337V2.04078H132.61V5.64752H137.575ZM137.521 11.2435C138.474 11.2435 139.161 11.0754 139.586 10.7413C140.009 10.4071 140.221 9.93449 140.221 9.32546C140.221 8.71642 140.009 8.24581 139.586 7.91756C139.163 7.58931 138.474 7.42519 137.521 7.42519H132.61V11.2435H137.521Z" fill="white"/>
<path d="M146.554 0.209717H157.546V13.0568H155.439V2.07439H148.575L148.331 7.65259C148.295 9.01303 148.124 10.1026 147.817 10.9173C147.508 11.7319 147.097 12.3172 146.579 12.6692C146.062 13.0212 145.432 13.1972 144.69 13.1972C144.482 13.1972 144.283 13.1814 144.098 13.1537C143.913 13.124 143.756 13.0924 143.628 13.0568V11.1565C143.651 11.1565 143.677 11.1585 143.706 11.1644C143.736 11.1704 143.762 11.1743 143.785 11.1743C144.041 11.1862 144.244 11.1921 144.395 11.1921C144.802 11.1921 145.133 11.0932 145.389 10.8935C145.645 10.6938 145.847 10.3221 145.999 9.7763C146.15 9.23054 146.243 8.45936 146.278 7.46276L146.558 0.211696L146.554 0.209717Z" fill="white"/>
<path d="M160.61 13.0568V0.209717H171.114V2.04078H162.7V5.64752H170.382V7.44299H162.7V11.2099H171.445V13.0568H160.61Z" fill="white"/>
<path d="M184.214 0.209717H186.34V13.0568H184.214V7.56559H175.818V13.0568H173.71V0.209717H175.818V5.70091H184.214V0.209717Z" fill="white"/>
<path d="M195.752 13.2663C194.299 13.2663 193.052 13.0033 192.007 12.4753C190.962 11.9474 190.167 11.2078 189.62 10.2587C189.075 9.30952 188.801 8.18835 188.801 6.89711V6.36916C188.801 5.07792 189.075 3.95873 189.62 3.0076C190.165 2.05648 190.962 1.31891 192.007 0.790953C193.052 0.262992 194.299 0 195.752 0C197.204 0 198.487 0.262992 199.532 0.790953C200.577 1.31891 201.372 2.05846 201.919 3.0076C202.464 3.95675 202.737 5.07792 202.737 6.36916V6.89711C202.737 8.18835 202.464 9.30754 201.919 10.2587C201.374 11.2098 200.577 11.9474 199.532 12.4753C198.487 13.0033 197.228 13.2663 195.752 13.2663ZM195.787 11.3838C197.32 11.3838 198.501 10.9883 199.331 10.1954C200.162 9.40246 200.577 8.29117 200.577 6.85954V6.40277C200.577 4.95928 200.166 3.84601 199.341 3.05901C198.516 2.27399 197.332 1.88049 195.787 1.88049C194.242 1.88049 193.02 2.27597 192.19 3.0689C191.359 3.86183 190.944 4.97312 190.944 6.40475V6.86152C190.944 8.29315 191.359 9.40444 192.19 10.1974C193.02 10.9883 194.219 11.3858 195.787 11.3858V11.3838Z" fill="white"/>
<path d="M93.9871 25.3659C94.788 25.5182 95.4945 25.8504 96.1045 26.3605C96.7145 26.8707 97.0195 27.5549 97.0195 28.4111C97.0195 29.0439 96.8464 29.6193 96.4961 30.1354C96.1478 30.6515 95.6047 31.0568 94.8667 31.3495C94.1288 31.6421 93.2039 31.7885 92.0881 31.7885H85V18.9414H92.0901C93.076 18.9414 93.9163 19.0877 94.607 19.3804C95.2977 19.673 95.8113 20.0764 96.1478 20.5866C96.4843 21.0968 96.6535 21.6741 96.6535 22.3208C96.6535 22.8724 96.5236 23.3589 96.2619 23.782C96.0002 24.2052 95.6657 24.5453 95.2603 24.8024C94.853 25.0614 94.4299 25.2354 93.9891 25.3303V25.3659H93.9871ZM92.0193 20.7369H87.0721V24.5196H92.159C92.9599 24.5196 93.5581 24.3515 93.9536 24.0174C94.3492 23.6832 94.546 23.2224 94.546 22.6352C94.546 22.0479 94.3452 21.5555 93.9458 21.2273C93.5443 20.899 92.9028 20.7349 92.0212 20.7349L92.0193 20.7369ZM92.0193 29.993C93.0642 29.993 93.808 29.8309 94.2488 29.5085C94.6896 29.1862 94.91 28.7136 94.91 28.0927C94.91 27.5055 94.6896 27.0447 94.2488 26.7105C93.808 26.3764 93.1114 26.2083 92.159 26.2083H87.0721V29.991H92.0193V29.993Z" fill="white"/>
<path d="M115.657 18.9434H118.026L112.609 28.5693C112.144 29.4136 111.705 30.0761 111.294 30.5585C110.881 31.039 110.417 31.4009 109.901 31.6402C109.383 31.8814 108.748 32 107.994 32C107.461 32 106.937 31.9308 106.426 31.7885V29.9416C106.926 30.0108 107.361 30.0464 107.732 30.0464C108.128 30.0464 108.455 29.997 108.716 29.8961C108.978 29.7972 109.21 29.6391 109.413 29.4215C109.616 29.204 109.834 28.8896 110.066 28.4803L104.613 18.9414H107.105L111.391 26.7382L115.659 18.9414L115.657 18.9434Z" fill="white"/>
<path d="M130.093 31.7904L125.006 25.3323L122.062 28.0255V31.7924H119.972V18.9453H122.062V25.5972L129.361 18.9453H132.305L126.661 24.0667L132.757 31.7924H130.093V31.7904Z" fill="white"/>
<path d="M141.798 18.9434C142.854 18.9434 143.738 19.0996 144.446 19.41C145.155 19.7205 145.686 20.1614 146.04 20.7289C146.394 21.2984 146.572 21.9688 146.572 22.7439C146.572 23.519 146.394 24.1696 146.04 24.7331C145.686 25.2967 145.155 25.7396 144.446 26.0619C143.738 26.3843 142.854 26.5464 141.798 26.5464H136.886V31.7904H134.796V18.9434H141.8H141.798ZM141.744 24.7153C142.673 24.7153 143.352 24.5453 143.783 24.2052C144.212 23.8651 144.429 23.3767 144.429 22.7439C144.429 22.1111 144.214 21.6227 143.783 21.2826C143.354 20.9425 142.673 20.7724 141.744 20.7724H136.884V24.7153H141.744Z" fill="white"/>
<path d="M159.805 31.7904H157.54L156.112 28.5693H149.84L148.429 31.7904H146.182L151.93 18.9434H153.986L159.805 31.7904ZM152.959 21.2668L150.59 26.8094H155.364L152.959 21.2668Z" fill="white"/>
<path d="M162.299 17.1913C162.066 17.4207 161.753 17.5354 161.358 17.5354C160.962 17.5354 160.649 17.4207 160.417 17.1913C160.185 16.9619 160.069 16.6614 160.069 16.2856C160.069 15.9099 160.185 15.6292 160.417 15.4057C160.649 15.1823 160.962 15.0715 161.358 15.0715C161.753 15.0715 162.066 15.1842 162.299 15.4057C162.531 15.6292 162.647 15.9218 162.647 16.2856C162.647 16.6495 162.531 16.9639 162.299 17.1913ZM164.319 18.9433H162.212V31.7903H164.319V18.9433ZM166.14 17.1913C165.902 17.4207 165.591 17.5354 165.207 17.5354C164.8 17.5354 164.481 17.4207 164.249 17.1913C164.016 16.9619 163.9 16.6614 163.9 16.2856C163.9 15.9099 164.016 15.6292 164.249 15.4057C164.481 15.1823 164.8 15.0715 165.207 15.0715C165.614 15.0715 165.915 15.1842 166.148 15.4057C166.38 15.6292 166.496 15.9218 166.496 16.2856C166.496 16.6495 166.376 16.9639 166.14 17.1913Z" fill="white"/>
<path d="M177.974 18.9434H180.1V31.7904H177.974V26.2992H169.578V31.7904H167.47V18.9434H169.578V24.4346H177.974V18.9434Z" fill="white"/>
<path d="M185.269 31.7904H183.161V18.9434H185.269V31.7904Z" fill="white"/>
</svg>
