<?xml version="1.0" encoding="utf-8"?>
<!-- Generator: Adobe Illustrator 27.0.0, SVG Export Plug-In . SVG Version: 6.00 Build 0)  -->
<svg version="1.1" id="Layer_1" xmlns="http://www.w3.org/2000/svg" xmlns:xlink="http://www.w3.org/1999/xlink" x="0px" y="0px"
	 viewBox="0 0 587 513.7" style="enable-background:new 0 0 587 513.7;" xml:space="preserve">
<style type="text/css">
	.st0{fill:#1367EA;}
	.st1{fill:#FCCC00;}
</style>
<g>
	<rect class="st0" width="93.2" height="313.1"/>
	<rect x="188.2" class="st0" width="93.2" height="313.1"/>
	<rect x="117.4" class="st0" width="46.6" height="313.1"/>
	<rect x="305.6" class="st1" width="93.2" height="313.1"/>
	<rect x="493.8" class="st1" width="93.2" height="313.1"/>
	<rect x="423" class="st1" width="46.6" height="313.1"/>
	<g>
		<g fill="#fff">
			<path d="M11.3,397c0.2,3.1,1,5.8,2.6,8s4,3.9,7.2,5.1c3.3,1.2,7.6,1.8,12.9,1.8c7.7,0,13.2-0.9,16.5-2.7c3.2-1.8,4.9-4.3,4.9-7.4
				c0-2.1-0.5-3.8-1.6-5.1c-1-1.2-3-2.2-5.9-3c-2.9-0.7-7-1.1-12.3-1.1H23.3v-9.2h12.4c4.7,0,8.3-0.3,10.8-1s4.3-1.6,5.2-2.9
				c1-1.3,1.4-2.9,1.4-5c0-3.1-1.5-5.6-4.6-7.5c-3-1.9-8-2.8-15-2.8c-5,0-9.1,0.6-12.2,1.7c-3.1,1.2-5.4,2.8-6.9,5s-2.4,4.9-2.6,8.1
				H1c0.4-7.4,3.3-13.2,8.6-17.5s13.4-6.4,24.1-6.4c6.9,0,12.6,0.8,17.1,2.5s7.8,3.9,9.9,6.6s3.2,5.8,3.2,9.1c0,4.1-1.3,7.4-3.9,9.7
				c-2.6,2.4-6,3.9-10.1,4.7v0.2c4.6,0.8,8.5,2.4,11.6,4.7c3.1,2.4,4.7,5.8,4.7,10.3c0,3.3-1.1,6.3-3.3,9c-2.2,2.7-5.6,4.8-10.4,6.4
				s-10.9,2.4-18.5,2.4c-11.2,0-19.5-2.1-24.9-6.3c-5.4-4.2-8.2-10.1-8.4-17.6h10.6V397z"/>
			<path d="M112.7,356.2c5.3,0,9.7,0.8,13.2,2.3c3.5,1.5,6.2,3.7,7.9,6.5c1.8,2.8,2.6,6.1,2.6,10c0,3.8-0.9,7.1-2.6,9.8
				c-1.8,2.8-4.4,5-7.9,6.6c-3.5,1.6-7.9,2.4-13.2,2.4H88.3v26H77.9v-63.6L112.7,356.2L112.7,356.2z M112.4,384.8
				c4.6,0,8-0.8,10.1-2.5s3.2-4.1,3.2-7.2s-1.1-5.5-3.2-7.2c-2.1-1.7-5.5-2.5-10.1-2.5H88.2v19.5L112.4,384.8L112.4,384.8z"/>
			<path d="M180.3,420.9c-7.2,0-13.4-1.3-18.6-3.9c-5.2-2.6-9.2-6.3-11.9-11s-4.1-10.3-4.1-16.6v-2.6c0-6.4,1.4-11.9,4.1-16.6
				c2.7-4.7,6.7-8.4,11.9-11s11.4-3.9,18.6-3.9c7.3,0,13.6,1.3,18.8,3.9s9.2,6.3,11.9,11s4.1,10.3,4.1,16.6v2.6
				c0,6.4-1.4,11.9-4.1,16.6c-2.7,4.7-6.7,8.4-11.9,11S187.6,420.9,180.3,420.9z M180.4,411.6c7.6,0,13.5-2,17.6-5.9
				s6.2-9.4,6.2-16.5v-2.3c0-7.1-2.1-12.7-6.2-16.6c-4.1-3.9-10-5.8-17.7-5.8c-7.8,0-13.8,2-17.9,5.9c-4.1,3.9-6.2,9.4-6.2,16.5v2.3
				c0,7.1,2.1,12.6,6.2,16.5C166.7,409.6,172.6,411.6,180.4,411.6z"/>
			<path d="M262.3,383.2c7.9,0,13.8,1.7,17.7,5c4,3.3,5.9,7.8,5.9,13.3c0,5.6-2,10.1-5.9,13.4c-4,3.3-9.9,5-17.7,5h-35v-63.6H281
				v9.1h-43.4v17.9L262.3,383.2L262.3,383.2z M262,410.9c4.7,0,8.2-0.8,10.3-2.5c2.1-1.7,3.2-4,3.2-7s-1.1-5.3-3.2-7
				c-2.1-1.6-5.5-2.4-10.3-2.4h-24.4v18.9H262z"/>
			<path d="M307,356.2h54.7v63.6h-10.5v-54.4H317l-1.2,27.6c-0.2,6.7-1,12.1-2.6,16.2c-1.5,4-3.6,6.9-6.2,8.7
				c-2.6,1.7-5.7,2.6-9.4,2.6c-1,0-2-0.1-2.9-0.2s-1.7-0.3-2.3-0.5v-9.4c0.1,0,0.2,0,0.4,0c0.1,0,0.3,0,0.4,0c1.3,0.1,2.3,0.1,3,0.1
				c2,0,3.7-0.5,4.9-1.5c1.3-1,2.3-2.8,3-5.5c0.8-2.7,1.2-6.5,1.4-11.5L307,356.2z"/>
			<path d="M376.9,419.8v-63.6h52.3v9.1h-41.9v17.9h38.2v8.9h-38.2v18.7h43.5v9.2h-53.9V419.8z"/>
			<path d="M494.4,356.2H505v63.6h-10.6v-27.2h-41.8v27.2h-10.5v-63.6h10.5v27.2h41.8V356.2z"/>
			<path d="M551.8,420.9c-7.2,0-13.4-1.3-18.6-3.9c-5.2-2.6-9.2-6.3-11.9-11s-4.1-10.3-4.1-16.6v-2.6c0-6.4,1.4-11.9,4.1-16.6
				c2.7-4.7,6.7-8.4,11.9-11s11.4-3.9,18.6-3.9c7.3,0,13.6,1.3,18.8,3.9s9.2,6.3,11.9,11s4.1,10.3,4.1,16.6v2.6
				c0,6.4-1.4,11.9-4.1,16.6c-2.7,4.7-6.7,8.4-11.9,11S559.2,420.9,551.8,420.9z M552,411.6c7.6,0,13.5-2,17.6-5.9s6.2-9.4,6.2-16.5
				v-2.3c0-7.1-2.1-12.7-6.2-16.6c-4.1-3.9-10-5.8-17.7-5.8c-7.8,0-13.8,2-17.9,5.9c-4.1,3.9-6.2,9.4-6.2,16.5v2.3
				c0,7.1,2.1,12.6,6.2,16.5C538.2,409.6,544.2,411.6,552,411.6z"/>
			<path d="M88.7,480.8c4,0.8,7.5,2.4,10.5,4.9s4.6,5.9,4.6,10.2c0,3.1-0.9,6-2.6,8.5c-1.7,2.6-4.4,4.6-8.1,6
				c-3.7,1.5-8.3,2.2-13.8,2.2H44V449h35.3c4.9,0,9.1,0.7,12.5,2.2s6,3.4,7.7,6c1.7,2.5,2.5,5.4,2.5,8.6c0,2.7-0.7,5.1-2,7.2
				s-3,3.8-5,5.1C93,479.4,90.9,480.2,88.7,480.8L88.7,480.8L88.7,480.8z M78.9,457.9H54.3v18.7h25.3c4,0,7-0.8,8.9-2.5
				c2-1.7,2.9-3.9,2.9-6.8c0-3-1-5.3-3-7C86.5,458.7,83.3,457.9,78.9,457.9z M78.9,503.7c5.2,0,8.9-0.8,11.1-2.4
				c2.2-1.6,3.3-3.9,3.3-7c0-2.9-1.1-5.2-3.3-6.8c-2.2-1.7-5.7-2.5-10.4-2.5H54.3v18.7H78.9z"/>
			<path d="M196.6,449h11.8l-27,47.7c-2.3,4.2-4.5,7.5-6.5,9.8c-2.1,2.4-4.4,4.2-6.9,5.4c-2.6,1.2-5.7,1.8-9.5,1.8
				c-2.7,0-5.3-0.3-7.8-1v-9.2c2.5,0.3,4.7,0.5,6.5,0.5c2,0,3.6-0.2,4.9-0.7c1.3-0.5,2.5-1.3,3.5-2.4c1-1.1,2.1-2.6,3.3-4.7
				L141.6,449H154l21.3,38.6L196.6,449z"/>
			<path d="M268.4,512.6l-25.3-32L228.4,494v18.7H218V449h10.4v32.9l36.3-32.9h14.7l-28.1,25.4l30.3,38.3h-13.2V512.6z"/>
			<path d="M326.6,449c5.3,0,9.7,0.8,13.2,2.3s6.2,3.7,7.9,6.5c1.8,2.8,2.6,6.1,2.6,10c0,3.8-0.9,7.1-2.6,9.8
				c-1.8,2.8-4.4,5-7.9,6.6s-7.9,2.4-13.2,2.4h-24.4v26h-10.4V449H326.6z M326.4,477.6c4.6,0,8-0.8,10.1-2.5s3.2-4.1,3.2-7.2
				s-1.1-5.5-3.2-7.2s-5.5-2.5-10.1-2.5h-24.2v19.5L326.4,477.6L326.4,477.6z"/>
			<path d="M416.3,512.6H405l-7.1-15.9h-31.2l-7,15.9h-11.2l28.6-63.6h10.2L416.3,512.6z M382.2,460.5L370.4,488h23.8L382.2,460.5z"
				/>
			<path d="M428.7,440.3c-1.2,1.1-2.7,1.7-4.7,1.7s-3.5-0.6-4.7-1.7s-1.7-2.6-1.7-4.5c0-1.8,0.6-3.3,1.7-4.4
				c1.2-1.1,2.7-1.7,4.7-1.7s3.5,0.6,4.7,1.7s1.7,2.6,1.7,4.4C430.4,437.7,429.8,439.2,428.7,440.3z M438.7,449h-10.5v63.6h10.5V449
				z M447.8,440.3c-1.2,1.1-2.7,1.7-4.6,1.7c-2,0-3.6-0.6-4.8-1.7c-1.2-1.1-1.7-2.6-1.7-4.5c0-1.8,0.6-3.3,1.7-4.4
				c1.2-1.1,2.7-1.7,4.8-1.7c2,0,3.5,0.6,4.7,1.7s1.7,2.6,1.7,4.4C449.6,437.7,449,439.2,447.8,440.3z"/>
			<path d="M506.7,449h10.6v63.6h-10.6v-27.2h-41.8v27.2h-10.5V449h10.5v27.2h41.8V449z"/>
			<path d="M543,512.6h-10.5V449H543V512.6z"/>
		</g>
	</g>
</g>
</svg>
