<svg width="142" height="29" viewBox="0 0 142 29" fill="none" xmlns="http://www.w3.org/2000/svg">
<path d="M3.95974 16.074V28.0219H0.544922V0.943267H3.95974V3.43041C5.17532 2.04689 6.48686 1.16719 8.1023 0.783324C12.3648 -0.232325 16.7793 2.24681 18.2828 6.50934C20.0182 11.4436 17.587 16.8418 12.8447 18.4012C9.51782 19.4968 6.54284 18.913 3.96773 16.074H3.95974ZM9.61378 15.3383C12.7167 15.3383 15.2278 12.8671 15.2598 9.7802C15.2918 6.67728 12.7487 4.14216 9.61378 4.14216C6.51085 4.14216 3.99972 6.6133 3.96773 9.69223C3.94374 12.7952 6.47886 15.3303 9.61378 15.3303V15.3383Z" fill="black"/>
<path d="M142 9.70801C142.016 14.7703 137.937 18.8728 132.883 18.8968C127.765 18.9208 123.63 14.8422 123.622 9.76399C123.622 4.70175 127.693 0.599172 132.747 0.583177C137.889 0.567183 141.984 4.61378 142 9.70801ZM132.779 4.14194C129.708 4.15794 127.173 6.69306 127.181 9.748C127.189 12.8029 129.732 15.3301 132.811 15.3301C135.93 15.3301 138.465 12.7869 138.449 9.68402C138.433 6.63708 135.874 4.13395 132.787 4.14194H132.779Z" fill="black"/>
<path d="M53.5339 9.76399C53.5259 14.8582 49.4073 18.9208 44.2811 18.8968C39.1948 18.8728 35.1322 14.7463 35.1482 9.62804C35.1722 4.61378 39.3228 0.567183 44.409 0.583177C49.4713 0.599172 53.5419 4.69375 53.5259 9.76399H53.5339ZM44.2971 15.3381C47.392 15.3541 49.9431 12.8749 49.9751 9.81997C50.0151 6.71705 47.48 4.15794 44.3531 4.14994C41.2741 4.14994 38.723 6.65307 38.715 9.71601C38.699 12.779 41.2341 15.3221 44.2971 15.3381Z" fill="black"/>
<path d="M62.5554 15.0425H70.7366V18.5453H56.5735C59.4685 13.8509 62.3235 9.22049 65.2585 4.45414H57.1653V0.943359H71.3284C68.4174 5.62974 65.5384 10.2521 62.5634 15.0345L62.5554 15.0425Z" fill="black"/>
<path d="M77.9261 9.78013C77.9421 6.61323 80.4932 4.1181 83.6841 4.15008C86.795 4.18207 89.3301 6.74918 89.3141 9.85211C89.2902 12.971 86.6671 15.5381 83.5321 15.4982C80.4212 15.4582 77.9101 12.8991 77.9261 9.78013Z" fill="#027FFB"/>
<path d="M121.807 0.57538V4.23811C120.759 4.35007 119.712 4.29409 118.776 4.58199C116.385 5.33373 114.985 7.06913 114.825 9.54827C114.658 12.1874 114.745 14.8504 114.721 17.4975C114.721 17.8334 114.721 18.1613 114.721 18.5452H111.179V0.927257H114.721V4.24611C116.433 1.74298 118.792 0.639358 121.815 0.567383L121.807 0.57538Z" fill="black"/>
<path d="M26.2559 18.561H22.7451V0.943126H26.2319V4.26198C27.9593 1.75085 30.3265 0.631235 33.3334 0.583252V4.28597C32.4457 4.34995 31.5341 4.28597 30.6784 4.4859C28.1992 5.0537 26.4638 7.05301 26.3519 9.58813C26.2319 12.2592 26.2799 14.9463 26.2639 17.6173C26.2639 17.9212 26.2639 18.2251 26.2639 18.561H26.2559Z" fill="black"/>
<path d="M106.972 0.591553V4.42222C105.733 4.2143 104.541 4.25428 103.405 4.76611C100.942 5.87772 99.9425 7.90102 99.8865 10.4601C99.8305 13.1392 99.8705 15.8183 99.8705 18.5453H96.3438V0.935434H99.8145V4.2063C100.822 3.3426 101.79 2.34295 102.917 1.58321C104.077 0.799481 105.477 0.583556 106.972 0.59955V0.591553Z" fill="black"/>
</svg>
