<?xml version="1.0" encoding="utf-8"?>
<!-- Generator: Adobe Illustrator 27.0.0, SVG Export Plug-In . SVG Version: 6.00 Build 0)  -->
<svg version="1.1" id="Layer_1" xmlns="http://www.w3.org/2000/svg" xmlns:xlink="http://www.w3.org/1999/xlink" x="0px" y="0px"
	 viewBox="0 0 719.9 649.9" style="enable-background:new 0 0 719.9 649.9;" xml:space="preserve">
<style type="text/css">
	.st0{fill:#FFFFFF;}
	.st1{fill:#1367EA;}
	.st2{fill:#FCCC00;}
</style>
<g>
	<path class="st0" d="M680.2,649.9H39.6C17.7,649.9,0,632.2,0,610.3V39.6C0,17.7,17.7,0,39.6,0h640.6c21.9,0,39.6,17.7,39.6,39.6
		v570.6C719.9,632.2,702.1,649.9,680.2,649.9z"/>
	<rect x="65.2" y="69.4" class="st1" width="93.2" height="313.1"/>
	<rect x="253.4" y="69.4" class="st1" width="93.2" height="313.1"/>
	<rect x="182.6" y="69.4" class="st1" width="46.6" height="313.1"/>
	<rect x="370.8" y="69.4" class="st2" width="93.2" height="313.1"/>
	<rect x="559.1" y="69.4" class="st2" width="93.2" height="313.1"/>
	<rect x="488.3" y="69.4" class="st2" width="46.6" height="313.1"/>
	<g>
		<g>
			<path d="M76.6,466.5c0.2,3.1,1,5.8,2.6,8c1.6,2.2,4,3.9,7.2,5.1c3.3,1.2,7.6,1.8,12.9,1.8c7.7,0,13.2-0.9,16.5-2.7
				c3.2-1.8,4.9-4.3,4.9-7.4c0-2.1-0.5-3.8-1.6-5.1c-1-1.2-3-2.2-5.9-3c-2.9-0.7-7-1.1-12.3-1.1H88.5v-9.2h12.4
				c4.7,0,8.3-0.3,10.8-1c2.5-0.7,4.3-1.6,5.2-2.9c1-1.3,1.4-2.9,1.4-5c0-3.1-1.5-5.6-4.6-7.5c-3-1.9-8-2.8-15-2.8
				c-5,0-9.1,0.6-12.2,1.7c-3.1,1.2-5.4,2.8-6.9,5c-1.5,2.2-2.4,4.9-2.6,8.1H66.3c0.4-7.4,3.3-13.2,8.6-17.5
				c5.3-4.3,13.4-6.4,24.1-6.4c6.9,0,12.6,0.8,17.1,2.5c4.5,1.7,7.8,3.9,9.9,6.6c2.1,2.7,3.2,5.8,3.2,9.1c0,4.1-1.3,7.4-3.9,9.7
				c-2.6,2.4-6,3.9-10.1,4.7v0.2c4.6,0.8,8.5,2.4,11.6,4.7c3.1,2.4,4.7,5.8,4.7,10.3c0,3.3-1.1,6.3-3.3,9c-2.2,2.7-5.6,4.8-10.4,6.4
				c-4.8,1.6-10.9,2.4-18.5,2.4c-11.2,0-19.5-2.1-24.9-6.3c-5.4-4.2-8.2-10.1-8.4-17.6H76.6z"/>
			<path d="M177.9,425.7c5.3,0,9.7,0.8,13.2,2.3c3.5,1.5,6.2,3.7,7.9,6.5c1.8,2.8,2.6,6.1,2.6,10c0,3.8-0.9,7.1-2.6,9.8
				c-1.8,2.8-4.4,5-7.9,6.6c-3.5,1.6-7.9,2.4-13.2,2.4h-24.4v26h-10.4v-63.6H177.9z M177.7,454.3c4.6,0,8-0.8,10.1-2.5
				c2.1-1.7,3.2-4.1,3.2-7.2c0-3.1-1.1-5.5-3.2-7.2c-2.1-1.7-5.5-2.5-10.1-2.5h-24.2v19.5H177.7z"/>
			<path d="M245.5,490.4c-7.2,0-13.4-1.3-18.6-3.9c-5.2-2.6-9.2-6.3-11.9-11c-2.7-4.7-4.1-10.3-4.1-16.6v-2.6
				c0-6.4,1.4-11.9,4.1-16.6c2.7-4.7,6.7-8.4,11.9-11c5.2-2.6,11.4-3.9,18.6-3.9c7.3,0,13.6,1.3,18.8,3.9c5.2,2.6,9.2,6.3,11.9,11
				c2.7,4.7,4.1,10.3,4.1,16.6v2.6c0,6.4-1.4,11.9-4.1,16.6c-2.7,4.7-6.7,8.4-11.9,11C259.1,489,252.8,490.4,245.5,490.4z
				 M245.7,481c7.6,0,13.5-2,17.6-5.9c4.1-3.9,6.2-9.4,6.2-16.5v-2.3c0-7.1-2.1-12.7-6.2-16.6c-4.1-3.9-10-5.8-17.7-5.8
				c-7.8,0-13.8,2-17.9,5.9c-4.1,3.9-6.2,9.4-6.2,16.5v2.3c0,7.1,2.1,12.6,6.2,16.5C231.9,479.1,237.9,481,245.7,481z"/>
			<path d="M327.5,452.6c7.9,0,13.8,1.7,17.7,5c4,3.3,5.9,7.8,5.9,13.3c0,5.6-2,10.1-5.9,13.4c-4,3.3-9.9,5-17.7,5h-35v-63.6h53.7
				v9.1h-43.4v17.9H327.5z M327.3,480.3c4.7,0,8.2-0.8,10.3-2.5c2.1-1.7,3.2-4,3.2-7c0-3-1.1-5.3-3.2-7c-2.1-1.6-5.5-2.4-10.3-2.4
				h-24.4v18.9H327.3z"/>
			<path d="M372.2,425.7h54.7v63.6h-10.5v-54.4h-34.2l-1.2,27.6c-0.2,6.7-1,12.1-2.6,16.2c-1.5,4-3.6,6.9-6.2,8.7
				c-2.6,1.7-5.7,2.6-9.4,2.6c-1,0-2-0.1-2.9-0.2c-0.9-0.1-1.7-0.3-2.3-0.5v-9.4c0.1,0,0.2,0,0.4,0c0.1,0,0.3,0,0.4,0
				c1.3,0.1,2.3,0.1,3,0.1c2,0,3.7-0.5,4.9-1.5c1.3-1,2.3-2.8,3-5.5c0.8-2.7,1.2-6.5,1.4-11.5L372.2,425.7z"/>
			<path d="M442.2,489.3v-63.6h52.3v9.1h-41.9v17.9h38.2v8.9h-38.2v18.7h43.5v9.2H442.2z"/>
			<path d="M559.6,425.7h10.6v63.6h-10.6v-27.2h-41.8v27.2h-10.5v-63.6h10.5v27.2h41.8V425.7z"/>
			<path d="M617.1,490.4c-7.2,0-13.4-1.3-18.6-3.9c-5.2-2.6-9.2-6.3-11.9-11c-2.7-4.7-4.1-10.3-4.1-16.6v-2.6
				c0-6.4,1.4-11.9,4.1-16.6c2.7-4.7,6.7-8.4,11.9-11c5.2-2.6,11.4-3.9,18.6-3.9c7.3,0,13.6,1.3,18.8,3.9c5.2,2.6,9.2,6.3,11.9,11
				c2.7,4.7,4.1,10.3,4.1,16.6v2.6c0,6.4-1.4,11.9-4.1,16.6c-2.7,4.7-6.7,8.4-11.9,11C630.7,489,624.4,490.4,617.1,490.4z
				 M617.2,481c7.6,0,13.5-2,17.6-5.9c4.1-3.9,6.2-9.4,6.2-16.5v-2.3c0-7.1-2.1-12.7-6.2-16.6c-4.1-3.9-10-5.8-17.7-5.8
				c-7.8,0-13.8,2-17.9,5.9c-4.1,3.9-6.2,9.4-6.2,16.5v2.3c0,7.1,2.1,12.6,6.2,16.5C603.5,479.1,609.4,481,617.2,481z"/>
			<path d="M154,550.3c4,0.8,7.5,2.4,10.5,4.9c3,2.5,4.6,5.9,4.6,10.2c0,3.1-0.9,6-2.6,8.5c-1.7,2.6-4.4,4.6-8.1,6
				c-3.7,1.5-8.3,2.2-13.8,2.2h-35.3v-63.6h35.3c4.9,0,9.1,0.7,12.5,2.2c3.4,1.5,6,3.4,7.7,6c1.7,2.5,2.5,5.4,2.5,8.6
				c0,2.7-0.7,5.1-2,7.2c-1.3,2.1-3,3.8-5,5.1c-2,1.3-4.1,2.1-6.3,2.6V550.3z M144.2,527.4h-24.6v18.7h25.3c4,0,7-0.8,8.9-2.5
				c2-1.7,2.9-3.9,2.9-6.8c0-3-1-5.3-3-7C151.8,528.2,148.6,527.4,144.2,527.4z M144.2,573.2c5.2,0,8.9-0.8,11.1-2.4
				c2.2-1.6,3.3-3.9,3.3-7c0-2.9-1.1-5.2-3.3-6.8c-2.2-1.7-5.7-2.5-10.4-2.5h-25.3v18.7H144.2z"/>
			<path d="M261.8,518.5h11.8l-27,47.7c-2.3,4.2-4.5,7.5-6.5,9.8c-2.1,2.4-4.4,4.2-6.9,5.4c-2.6,1.2-5.7,1.8-9.5,1.8
				c-2.7,0-5.3-0.3-7.8-1v-9.2c2.5,0.3,4.7,0.5,6.5,0.5c2,0,3.6-0.2,4.9-0.7c1.3-0.5,2.5-1.3,3.5-2.4c1-1.1,2.1-2.6,3.3-4.7
				l-27.1-47.2h12.4l21.3,38.6L261.8,518.5z"/>
			<path d="M333.7,582.1l-25.3-32l-14.6,13.3v18.7h-10.4v-63.6h10.4v32.9l36.3-32.9h14.7l-28.1,25.4l30.3,38.3H333.7z"/>
			<path d="M391.9,518.5c5.3,0,9.7,0.8,13.2,2.3c3.5,1.5,6.2,3.7,7.9,6.5c1.8,2.8,2.6,6.1,2.6,10c0,3.8-0.9,7.1-2.6,9.8
				c-1.8,2.8-4.4,5-7.9,6.6c-3.5,1.6-7.9,2.4-13.2,2.4h-24.4v26H357v-63.6H391.9z M391.6,547.1c4.6,0,8-0.8,10.1-2.5
				c2.1-1.7,3.2-4.1,3.2-7.2c0-3.1-1.1-5.5-3.2-7.2c-2.1-1.7-5.5-2.5-10.1-2.5h-24.2v19.5H391.6z"/>
			<path d="M481.5,582.1h-11.3l-7.1-15.9h-31.2l-7,15.9h-11.2l28.6-63.6h10.2L481.5,582.1z M447.4,530l-11.8,27.5h23.8L447.4,530z"
				/>
			<path d="M493.9,509.8c-1.2,1.1-2.7,1.7-4.7,1.7c-2,0-3.5-0.6-4.7-1.7c-1.2-1.1-1.7-2.6-1.7-4.5c0-1.8,0.6-3.3,1.7-4.4
				c1.2-1.1,2.7-1.7,4.7-1.7c2,0,3.5,0.6,4.7,1.7c1.2,1.1,1.7,2.6,1.7,4.4C495.7,507.2,495.1,508.7,493.9,509.8z M504,518.5h-10.5
				v63.6H504V518.5z M513,509.8c-1.2,1.1-2.7,1.7-4.6,1.7c-2,0-3.6-0.6-4.8-1.7c-1.2-1.1-1.7-2.6-1.7-4.5c0-1.8,0.6-3.3,1.7-4.4
				c1.2-1.1,2.7-1.7,4.8-1.7c2,0,3.5,0.6,4.7,1.7c1.2,1.1,1.7,2.6,1.7,4.4C514.8,507.2,514.2,508.7,513,509.8z"/>
			<path d="M571.9,518.5h10.6v63.6h-10.6v-27.2h-41.8v27.2h-10.5v-63.6h10.5v27.2h41.8V518.5z"/>
			<path d="M608.2,582.1h-10.5v-63.6h10.5V582.1z"/>
		</g>
	</g>
</g>
</svg>
