<svg width="26" height="22" viewBox="0 0 26 22" fill="none" xmlns="http://www.w3.org/2000/svg">
<path d="M24.2227 0.227189L0.67649 9.33887C0.662481 9.34427 0.648901 9.35072 0.635865 9.35817C0.444928 9.46633 -0.887572 10.2814 0.991334 11.0121L1.01063 11.0192L6.61739 12.8306C6.66017 12.8445 6.70546 12.8489 6.75011 12.8434C6.79476 12.838 6.83768 12.8229 6.87587 12.7991L20.7823 4.12262C20.8164 4.10134 20.8544 4.08701 20.894 4.08047C21.0875 4.04848 21.6446 3.98856 21.2922 4.43594C20.8935 4.94375 11.3949 13.4557 10.3407 14.3997C10.2799 14.4543 10.2423 14.5301 10.2356 14.6115L9.77547 20.0959C9.77542 20.1517 9.78837 20.2068 9.81332 20.2568C9.83826 20.3068 9.87451 20.3503 9.91919 20.3838C9.98258 20.4237 10.0571 20.4422 10.1318 20.4365C10.2065 20.4309 10.2774 20.4013 10.3341 20.3523L13.6653 17.375C13.7179 17.328 13.7851 17.3004 13.8556 17.2968C13.926 17.2932 13.9956 17.3138 14.0528 17.3552L19.8647 21.5751L19.8835 21.5878C20.0241 21.6747 21.5435 22.5588 21.9823 20.5844L25.994 1.5084C25.9996 1.44797 26.0539 0.783752 25.5791 0.391213C25.0804 -0.0190997 24.3746 0.188088 24.2684 0.210432C24.2528 0.21479 24.2375 0.220394 24.2227 0.227189Z" fill="black"/>
</svg>
