<svg width="55" height="61" viewBox="0 0 55 61" fill="none" xmlns="http://www.w3.org/2000/svg">
<path d="M0.865234 39.8291H3.45698V47.3289C3.45698 48.1713 3.55417 48.7787 3.75665 49.1675C4.06442 49.8559 4.73664 50.1961 5.77334 50.1961C6.81003 50.1961 7.4742 49.8559 7.78197 49.1675C7.97635 48.7787 8.08163 48.1713 8.08163 47.3289V39.8291H10.6733V47.337C10.6733 48.6329 10.4708 49.6453 10.0659 50.3742C9.31267 51.7025 7.88722 52.3666 5.77334 52.3666C3.65945 52.3666 2.2259 51.7025 1.47267 50.3742C1.06771 49.6534 0.865234 48.641 0.865234 47.337V39.8291Z" fill="#00226D"/>
<path d="M13.1597 39.8291H15.6704V44.8587L20.3922 39.8291H23.6886L18.6752 44.8506L23.9478 52.0427H20.6676L16.9015 46.7134L15.6704 47.9607V52.0508H13.1597V39.8372V39.8291Z" fill="#00226D"/>
<path d="M30.9129 44.8104C31.488 44.7375 31.901 44.6484 32.1521 44.535C32.5976 44.3487 32.8243 44.049 32.8243 43.6522C32.8243 43.1662 32.6543 42.8261 32.3141 42.6398C31.9739 42.4535 31.4718 42.3644 30.8077 42.3644C30.0625 42.3644 29.5361 42.5426 29.2283 42.9071C29.0096 43.1743 28.8558 43.5388 28.7829 44.0005H25.7862C25.8509 42.9638 26.1425 42.1052 26.6609 41.4411C27.487 40.3963 28.9044 39.8699 30.9129 39.8699C32.2169 39.8699 33.3832 40.129 34.3956 40.6474C35.408 41.1657 35.9182 42.1376 35.9182 43.5712V49.0219C35.9182 49.4026 35.9182 49.8562 35.9425 50.3988C35.9668 50.8038 36.0235 51.0791 36.1288 51.2249C36.2341 51.3707 36.3799 51.4922 36.5904 51.5813V52.0429H33.2131C33.1159 51.8 33.0511 51.5813 33.0187 51.3707C32.9782 51.1601 32.9539 50.9172 32.9296 50.6499C32.5004 51.1115 31.9982 51.5084 31.4394 51.8405C30.7671 52.2292 30.0058 52.4155 29.1554 52.4155C28.0701 52.4155 27.1792 52.1077 26.4746 51.4922C25.7699 50.8767 25.4136 50.01 25.4136 48.8843C25.4136 47.4264 25.9805 46.3654 27.1144 45.7094C27.7381 45.353 28.6532 45.1019 29.86 44.9481L30.9291 44.8185L30.9129 44.8104ZM32.8162 46.2601C32.6138 46.3816 32.4194 46.4869 32.2169 46.5598C32.0144 46.6327 31.739 46.7056 31.3827 46.7704L30.678 46.9C30.0139 47.0133 29.536 47.1591 29.2526 47.3292C28.7666 47.6127 28.5156 48.05 28.5156 48.6494C28.5156 49.1839 28.6613 49.5646 28.961 49.7995C29.2607 50.0343 29.6252 50.1558 30.0544 50.1558C30.7348 50.1558 31.3584 49.9614 31.9334 49.5646C32.5084 49.1758 32.8 48.455 32.8243 47.4183V46.2601H32.8162Z" fill="#E2001F"/>
<path d="M41.5311 35.9902H38.3805V39.1408H41.5311V35.9902Z" fill="#E2001F"/>
<path d="M41.5311 40.1537H38.3805V52.0433H41.5311V40.1537Z" fill="#E2001F"/>
<path d="M50.4645 40.3477C51.0233 40.6636 51.4769 41.1009 51.8252 41.6598V35.9904H54.9757V52.0429H51.9548V50.3988C51.5093 51.1034 51.0072 51.6137 50.4402 51.9376C49.8733 52.2535 49.1687 52.4155 48.3263 52.4155C46.9414 52.4155 45.767 51.8567 44.8194 50.7309C43.8718 49.6051 43.3939 48.1634 43.3939 46.4059C43.3939 44.3811 43.8637 42.7856 44.7951 41.6193C45.7265 40.453 46.9818 39.878 48.5369 39.878C49.2577 39.878 49.8976 40.0318 50.4564 40.3558L50.4645 40.3477ZM51.2258 48.8195C51.6875 48.1634 51.9143 47.3211 51.9143 46.2763C51.9143 44.8185 51.5498 43.7818 50.8128 43.1581C50.3592 42.7775 49.8409 42.5912 49.2416 42.5912C48.3344 42.5912 47.6622 42.9314 47.241 43.6198C46.8118 44.3082 46.6012 45.1586 46.6012 46.1791C46.6012 47.2806 46.8199 48.1553 47.2491 48.8114C47.6784 49.4674 48.3344 49.7995 49.2172 49.7995C50.1 49.7995 50.7642 49.4755 51.2258 48.8195Z" fill="#E2001F"/>
<path fill-rule="evenodd" clip-rule="evenodd" d="M54.9919 11.2957V4.28992L43.2562 11.2957H54.9919Z" fill="#00226D"/>
<path fill-rule="evenodd" clip-rule="evenodd" d="M22.5144 0.523926H7.18262L22.5144 9.6841V0.523926Z" fill="#00226D"/>
<path fill-rule="evenodd" clip-rule="evenodd" d="M0.865723 22.0679V29.0737L12.5934 22.0679H0.865723Z" fill="#00226D"/>
<path fill-rule="evenodd" clip-rule="evenodd" d="M33.343 0.523926V9.6841L48.6748 0.523926H33.343Z" fill="#00226D"/>
<path fill-rule="evenodd" clip-rule="evenodd" d="M0.865723 4.29004V11.2958H12.5934L0.865723 4.29004Z" fill="#00226D"/>
<path fill-rule="evenodd" clip-rule="evenodd" d="M54.9919 29.0739V22.0681H43.2562L54.9919 29.0739Z" fill="#00226D"/>
<path fill-rule="evenodd" clip-rule="evenodd" d="M7.17505 32.8396H22.5149V23.6794L7.17505 32.8396Z" fill="#00226D"/>
<path fill-rule="evenodd" clip-rule="evenodd" d="M33.343 32.8396H48.6829L33.343 23.6794V32.8396Z" fill="#00226D"/>
<path d="M14.6986 11.2958L0.865234 3.03467V0.523926L18.9102 11.2958H14.6986ZM41.1587 22.0677L54.9921 30.3289V32.8397L36.9471 22.0677H41.1587ZM33.343 10.9395L50.7886 0.523926H55.0002L36.9552 11.2958H33.343V10.9395ZM0.865234 32.8397L18.9102 22.0677H22.5224V22.4241L5.07682 32.8397H0.865234Z" fill="#E2001F"/>
<path d="M24.6768 32.8397V19.9134H0.865234V13.4502H24.6768V0.523926H31.1724V13.4502H54.9921V19.9134H31.1724V32.8397H24.6768Z" fill="#E2001F"/>
<path d="M0.84082 56.6999V56.2949H1.31054V55.8738C1.31054 55.647 1.37533 55.4688 1.51302 55.3554C1.6426 55.2339 1.83701 55.1772 2.09618 55.1772C2.13668 55.1772 2.19337 55.1772 2.24196 55.1853C2.29866 55.1853 2.34725 55.2015 2.38774 55.2177V55.6227C2.38774 55.6227 2.30677 55.5984 2.25818 55.5903C2.20958 55.5903 2.16906 55.5822 2.12856 55.5822C2.01517 55.5822 1.92608 55.6065 1.86938 55.647C1.80459 55.6875 1.7803 55.7766 1.7803 55.8981V56.2868H2.32293V56.6918H1.7803V59.0972H1.31864V56.6918H0.848927L0.84082 56.6999Z" fill="#00226D"/>
<path d="M3.07606 56.2946V56.8858H3.08412C3.19751 56.659 3.3352 56.4889 3.49718 56.3837C3.65917 56.2784 3.86976 56.2217 4.12084 56.2298V56.7157C3.93455 56.7157 3.78066 56.74 3.65107 56.7886C3.52148 56.8372 3.41618 56.9101 3.33519 57.0154C3.2542 57.1126 3.19753 57.2341 3.15703 57.3718C3.12463 57.5094 3.10033 57.6714 3.10033 57.8496V59.105H2.63867V56.2946H3.07606Z" fill="#00226D"/>
<path d="M4.31515 57.1209C4.37185 56.9428 4.46094 56.7889 4.57433 56.6512C4.68772 56.5216 4.83348 56.4163 5.00356 56.3353C5.17365 56.2624 5.36806 56.2219 5.59484 56.2219C5.82161 56.2219 6.01598 56.2624 6.18606 56.3353C6.35614 56.4082 6.49385 56.5135 6.61534 56.6512C6.72873 56.7808 6.81783 56.9428 6.87452 57.1209C6.93122 57.2991 6.9636 57.4935 6.9636 57.7041C6.9636 57.9147 6.93122 58.1009 6.87452 58.2791C6.81783 58.4573 6.72873 58.6112 6.61534 58.7408C6.50195 58.8704 6.35614 58.9756 6.18606 59.0485C6.01598 59.1214 5.82161 59.1619 5.59484 59.1619C5.36806 59.1619 5.17365 59.1214 5.00356 59.0485C4.83348 58.9756 4.68772 58.8704 4.57433 58.7408C4.46094 58.6112 4.37185 58.4573 4.31515 58.2791C4.25846 58.1009 4.22607 57.9066 4.22607 57.7041C4.22607 57.5016 4.25846 57.3072 4.31515 57.1209ZM4.78492 58.1576C4.83351 58.2872 4.89019 58.4006 4.97118 58.4897C5.05218 58.5788 5.1413 58.6436 5.25469 58.6922C5.35998 58.7408 5.47335 58.7651 5.59484 58.7651C5.71633 58.7651 5.8297 58.7408 5.93499 58.6922C6.04028 58.6436 6.13745 58.5788 6.21844 58.4897C6.29943 58.4006 6.36426 58.2872 6.40476 58.1576C6.45335 58.028 6.46956 57.8742 6.46956 57.7041C6.46956 57.534 6.44525 57.3801 6.40476 57.2505C6.35616 57.1209 6.29943 57.0075 6.21844 56.9185C6.13745 56.8294 6.04838 56.7565 5.93499 56.7079C5.8297 56.6593 5.71633 56.635 5.59484 56.635C5.47335 56.635 5.35998 56.6593 5.25469 56.7079C5.1494 56.7565 5.05218 56.8213 4.97118 56.9185C4.89019 57.0075 4.82542 57.1209 4.78492 57.2505C4.73632 57.3801 4.72011 57.534 4.72011 57.7041C4.72011 57.8742 4.74442 58.028 4.78492 58.1576Z" fill="#00226D"/>
<path d="M7.86293 56.2947V56.7077H7.87103C8.08161 56.3918 8.38128 56.2299 8.77814 56.2299C8.95632 56.2299 9.11022 56.2623 9.2479 56.3352C9.38559 56.408 9.49087 56.5295 9.54757 56.7077C9.64476 56.5538 9.76622 56.4404 9.9201 56.3513C10.074 56.2704 10.2441 56.2299 10.4304 56.2299C10.568 56.2299 10.6977 56.2461 10.811 56.2785C10.9244 56.3108 11.0216 56.3594 11.1026 56.4242C11.1836 56.489 11.2484 56.57 11.297 56.6753C11.3456 56.7806 11.3618 56.9021 11.3618 57.0479V59.1132H10.9001V57.2666C10.9001 57.1775 10.9001 57.0965 10.8758 57.0236C10.8596 56.9507 10.8353 56.8778 10.7948 56.8211C10.7543 56.7644 10.6976 56.7239 10.6328 56.6915C10.5599 56.6591 10.4709 56.6429 10.3575 56.6429C10.1307 56.6429 9.95249 56.7077 9.81481 56.8373C9.68522 56.9669 9.62043 57.1451 9.62043 57.3637V59.1132H9.15877V57.2666C9.15877 57.1775 9.1507 57.0965 9.1345 57.0155C9.1183 56.9426 9.09398 56.8697 9.05348 56.813C9.01299 56.7563 8.95633 56.7158 8.89154 56.6834C8.82674 56.651 8.73765 56.6348 8.63236 56.6348C8.49467 56.6348 8.38129 56.6591 8.2841 56.7158C8.18691 56.7725 8.10589 56.8373 8.04919 56.9102C7.9925 56.9831 7.94392 57.0641 7.91963 57.1451C7.89533 57.2261 7.87914 57.2909 7.87914 57.3475V59.097H7.41748V56.2866H7.85482L7.86293 56.2947Z" fill="#00226D"/>
<path d="M14.7879 56.2949V56.6998H14.2291V58.4493C14.2291 58.5059 14.2291 58.5464 14.2453 58.5788C14.2534 58.6112 14.2696 58.6355 14.2939 58.6517C14.3182 58.6679 14.3506 58.6841 14.3992 58.6841C14.4478 58.6841 14.5045 58.6922 14.5773 58.6922H14.7879V59.0972H14.4316C14.3101 59.0972 14.2129 59.0891 14.1238 59.0729C14.0347 59.0567 13.9699 59.0243 13.9132 58.9838C13.8565 58.9433 13.8242 58.8785 13.7999 58.7975C13.7756 58.7165 13.7594 58.6112 13.7594 58.4817V56.6917H13.2815V56.2868H13.7594V55.4445H14.221V56.2868H14.7798L14.7879 56.2949Z" fill="#00226D"/>
<path d="M15.6542 55.2173V56.6995H15.6623C15.6947 56.6104 15.7514 56.5375 15.8162 56.4808C15.881 56.4241 15.9539 56.3755 16.0349 56.335C16.1159 56.2945 16.205 56.2702 16.2941 56.254C16.3831 56.2378 16.4722 56.2297 16.5532 56.2297C16.7395 56.2297 16.8934 56.254 17.0149 56.3026C17.1364 56.3512 17.2417 56.4241 17.3146 56.5132C17.3875 56.6023 17.4442 56.7157 17.4766 56.8372C17.5089 56.9587 17.5251 57.1044 17.5251 57.2502V59.0968H17.0635V57.1935C17.0635 57.0234 17.0149 56.8777 16.9096 56.7805C16.8043 56.6752 16.6667 56.6266 16.4885 56.6266C16.3508 56.6266 16.2212 56.6509 16.124 56.6914C16.0187 56.7319 15.9377 56.7967 15.8648 56.8777C15.7919 56.9587 15.7433 57.0477 15.7109 57.1611C15.6785 57.2664 15.6623 57.3879 15.6623 57.5094V59.0968H15.2007V55.2092H15.6623L15.6542 55.2173Z" fill="#00226D"/>
<path d="M20.117 58.9269C19.9064 59.0889 19.6391 59.1699 19.3233 59.1699C19.0965 59.1699 18.9021 59.1375 18.7401 59.0646C18.5781 58.9917 18.4323 58.8864 18.327 58.7568C18.2136 58.6272 18.1326 58.4733 18.0759 58.2871C18.0193 58.1089 17.9869 57.9064 17.9788 57.6958C17.9788 57.4852 18.0112 57.2828 18.0759 57.1046C18.1407 56.9264 18.2299 56.7725 18.3513 56.6429C18.4728 56.5133 18.6105 56.408 18.7725 56.3352C18.9344 56.2623 19.1127 56.2299 19.307 56.2299C19.5581 56.2299 19.7687 56.2785 19.9307 56.3837C20.0927 56.489 20.2304 56.6186 20.3275 56.7806C20.4247 56.9426 20.4976 57.1127 20.5381 57.3071C20.5786 57.4933 20.5948 57.6715 20.5867 57.8497H18.4809C18.4809 57.9712 18.489 58.0927 18.5214 58.198C18.5538 58.3113 18.6105 58.4085 18.6753 58.4895C18.7482 58.5786 18.8373 58.6434 18.9507 58.692C19.0641 58.7406 19.1936 58.7649 19.3475 58.7649C19.5419 58.7649 19.7039 58.7163 19.8254 58.6272C19.9469 58.5381 20.036 58.4004 20.0765 58.2142H20.53C20.4652 58.53 20.3356 58.7649 20.1251 58.9269H20.117ZM20.0036 57.1208C19.9631 57.0236 19.9064 56.9345 19.8335 56.8697C19.7606 56.7968 19.6796 56.7401 19.5824 56.6996C19.4852 56.6591 19.3799 56.6348 19.2666 56.6348C19.1532 56.6348 19.0398 56.6591 18.9426 56.6996C18.8454 56.7401 18.7644 56.7968 18.6915 56.8697C18.6186 56.9426 18.57 57.0236 18.5295 57.1208C18.489 57.218 18.4647 57.3233 18.4566 57.4285H20.0765C20.0765 57.3233 20.0441 57.218 20.0036 57.1208Z" fill="#00226D"/>
<path d="M24.0535 55.2173C24.1345 55.2173 24.2236 55.2173 24.3208 55.2173C24.418 55.2173 24.5152 55.2173 24.6043 55.2335C24.7015 55.2416 24.7906 55.2578 24.8716 55.274C24.9526 55.2902 25.0255 55.3226 25.0821 55.355C25.2117 55.4279 25.317 55.5332 25.4061 55.6709C25.4952 55.8086 25.5357 55.9706 25.5357 56.1649C25.5357 56.3755 25.4871 56.5537 25.3899 56.6995C25.2927 56.8534 25.1469 56.9587 24.9606 57.0315C25.2036 57.0963 25.3818 57.2016 25.5114 57.3717C25.641 57.5418 25.7058 57.7443 25.7058 57.9792C25.7058 58.1168 25.6815 58.2626 25.6329 58.3922C25.5843 58.5299 25.5033 58.6433 25.4061 58.7486C25.3089 58.8539 25.1793 58.9349 25.0336 58.9996C24.8878 59.0644 24.7177 59.0968 24.5233 59.0968H22.6443V55.2092H24.0535V55.2173ZM24.1912 56.8858C24.4828 56.8858 24.6934 56.8372 24.823 56.7319C24.9526 56.6266 25.0173 56.4727 25.0173 56.2702C25.0173 56.1325 24.993 56.0272 24.9525 55.9463C24.912 55.8653 24.8473 55.8086 24.7744 55.76C24.7015 55.7195 24.6124 55.6871 24.5071 55.679C24.4018 55.6709 24.3046 55.6628 24.1912 55.6628H23.1545V56.902H24.1912V56.8858ZM24.4504 58.6676C24.6772 58.6676 24.8554 58.6028 24.985 58.4813C25.1145 58.3598 25.1793 58.1897 25.1793 57.9711C25.1793 57.8415 25.155 57.7362 25.1064 57.6552C25.0578 57.5742 24.993 57.5094 24.9202 57.4527C24.8392 57.4041 24.7501 57.3717 24.6529 57.3474C24.5476 57.3312 24.4423 57.315 24.337 57.315H23.1545V58.6595H24.4504V58.6676Z" fill="#00226D"/>
<path d="M26.6444 56.2947V56.8859H26.6525C26.7659 56.6591 26.9036 56.4891 27.0655 56.3838C27.2275 56.2785 27.4381 56.2218 27.6891 56.2299V56.7158C27.5029 56.7158 27.349 56.7401 27.2194 56.7887C27.0898 56.8373 26.9845 56.9102 26.9035 57.0155C26.8226 57.1127 26.7658 57.2342 26.7334 57.3719C26.7011 57.5096 26.6767 57.6715 26.6767 57.8497V59.1051H26.2151V56.2947H26.6525H26.6444Z" fill="#00226D"/>
<path d="M27.9973 55.7845V55.2175H28.459V55.7845H27.9973ZM28.459 56.2866V59.097H27.9973V56.2866H28.459Z" fill="#00226D"/>
<path d="M30.2972 56.2949V56.6998H29.7384V58.4493C29.7384 58.5059 29.7384 58.5464 29.7546 58.5788C29.7708 58.6112 29.7789 58.6355 29.8032 58.6517C29.8275 58.6679 29.8598 58.6841 29.9084 58.6841C29.957 58.6841 30.0137 58.6922 30.0866 58.6922H30.2972V59.0972H29.9408C29.8194 59.0972 29.7222 59.0891 29.6331 59.0729C29.544 59.0567 29.4792 59.0243 29.4225 58.9838C29.3658 58.9433 29.3334 58.8785 29.3091 58.7975C29.2848 58.7165 29.2686 58.6112 29.2686 58.4817V56.6917H28.7908V56.2868H29.2686V55.4445H29.7303V56.2868H30.2891L30.2972 56.2949Z" fill="#00226D"/>
<path d="M30.718 55.7845V55.2175H31.1797V55.7845H30.718ZM31.1797 56.2866V59.097H30.718V56.2866H31.1797Z" fill="#00226D"/>
<path d="M32.1848 58.4735C32.2253 58.5464 32.2819 58.6031 32.3548 58.6436C32.4277 58.6841 32.5087 58.7165 32.5978 58.7327C32.6869 58.7489 32.776 58.757 32.8732 58.757C32.9461 58.757 33.0189 58.757 33.0999 58.7408C33.1809 58.7327 33.2538 58.7084 33.3186 58.6841C33.3834 58.6517 33.4401 58.6112 33.4806 58.5545C33.5211 58.4978 33.5454 58.4249 33.5454 58.3358C33.5454 58.2143 33.4968 58.1252 33.4077 58.0604C33.3186 57.9956 33.2052 57.9471 33.0676 57.9147C32.9299 57.8823 32.7841 57.8418 32.6221 57.8094C32.4601 57.777 32.3143 57.7365 32.1767 57.6798C32.039 57.6231 31.9256 57.5421 31.8365 57.4449C31.7474 57.3396 31.6988 57.2019 31.6988 57.0237C31.6988 56.8861 31.7312 56.7646 31.796 56.6593C31.8608 56.554 31.9418 56.473 32.0389 56.4082C32.1361 56.3434 32.2496 56.2948 32.3791 56.2705C32.5006 56.2381 32.6302 56.2219 32.7517 56.2219C32.9137 56.2219 33.0595 56.2381 33.1891 56.2624C33.3267 56.2867 33.4401 56.3353 33.5454 56.4001C33.6507 56.4649 33.7317 56.5621 33.7965 56.6755C33.8613 56.7889 33.8937 56.9347 33.9018 57.1047H33.4401C33.4401 57.0156 33.4077 56.9428 33.3672 56.878C33.3267 56.8132 33.2781 56.7727 33.2133 56.7322C33.1485 56.6998 33.0837 56.6674 33.0109 56.6512C32.938 56.635 32.8651 56.6269 32.7841 56.6269C32.7112 56.6269 32.6464 56.6269 32.5735 56.6431C32.5006 56.6512 32.4358 56.6755 32.3791 56.6998C32.3224 56.7241 32.2738 56.7646 32.2414 56.8051C32.209 56.8537 32.1848 56.9104 32.1848 56.9832C32.1848 57.0642 32.209 57.129 32.2657 57.1857C32.3224 57.2343 32.3953 57.2829 32.4844 57.3153C32.5735 57.3477 32.6707 57.3801 32.776 57.4044C32.8813 57.4287 32.9946 57.453 33.0999 57.4773C33.2133 57.5016 33.3267 57.534 33.4401 57.5664C33.5535 57.5988 33.6507 57.6474 33.7317 57.7122C33.8208 57.7689 33.8856 57.8499 33.9423 57.939C33.9909 58.028 34.0233 58.1414 34.0233 58.2791C34.0233 58.4492 33.9909 58.595 33.918 58.7003C33.8451 58.8137 33.756 58.9028 33.6426 58.9756C33.5292 59.0485 33.3996 59.089 33.2538 59.1214C33.108 59.1538 32.9704 59.1619 32.8246 59.1619C32.6707 59.1619 32.5168 59.1457 32.3791 59.1133C32.2415 59.0809 32.1119 59.0242 32.0066 58.9513C31.9013 58.8785 31.8122 58.7813 31.7474 58.6598C31.6826 58.5383 31.6421 58.3925 31.6421 58.2143H32.1037C32.1037 58.3196 32.1281 58.4006 32.1767 58.4735H32.1848Z" fill="#00226D"/>
<path d="M34.9548 55.2173V56.6995H34.9629C34.9953 56.6104 35.052 56.5375 35.1168 56.4808C35.1816 56.4241 35.2544 56.3755 35.3354 56.335C35.4164 56.2945 35.5055 56.2702 35.5946 56.254C35.6837 56.2378 35.7728 56.2297 35.8538 56.2297C36.0401 56.2297 36.1939 56.254 36.3154 56.3026C36.4369 56.3512 36.5422 56.4241 36.6151 56.5132C36.688 56.6023 36.7447 56.7157 36.7771 56.8372C36.8095 56.9587 36.8257 57.1044 36.8257 57.2502V59.0968H36.364V57.1935C36.364 57.0234 36.3154 56.8777 36.2101 56.7805C36.1048 56.6752 35.9671 56.6266 35.789 56.6266C35.6513 56.6266 35.5217 56.6509 35.4245 56.6914C35.3192 56.7319 35.2383 56.7967 35.1654 56.8777C35.0925 56.9587 35.0439 57.0477 35.0115 57.1611C34.9791 57.2664 34.9629 57.3879 34.9629 57.5094V59.0968H34.5012V55.2092H34.9629L34.9548 55.2173Z" fill="#00226D"/>
<path d="M39.507 56.2944V56.6751H39.5151C39.588 56.5212 39.7095 56.4078 39.8715 56.3349C40.0335 56.262 40.2116 56.2296 40.4141 56.2296C40.6328 56.2296 40.8191 56.2701 40.9811 56.3511C41.143 56.4321 41.2807 56.5374 41.386 56.6751C41.4913 56.8128 41.5723 56.9666 41.629 57.1448C41.6857 57.323 41.71 57.5093 41.71 57.7118C41.71 57.9142 41.6857 58.1005 41.629 58.2787C41.5723 58.4569 41.4994 58.6108 41.386 58.7404C41.2807 58.8699 41.143 58.9752 40.9811 59.0562C40.8191 59.1291 40.6328 59.1696 40.4141 59.1696C40.3412 59.1696 40.2683 59.1696 40.1792 59.1453C40.0902 59.1291 40.0092 59.1048 39.9282 59.0724C39.8472 59.04 39.7662 58.9914 39.6933 58.9428C39.6204 58.8861 39.5556 58.8133 39.507 58.7323H39.4989V60.182H39.0372V56.2944H39.4989H39.507ZM41.1673 57.2906C41.1349 57.1691 41.0782 57.0557 41.0134 56.9585C40.9405 56.8614 40.8515 56.7804 40.7381 56.7237C40.6247 56.667 40.4951 56.6346 40.3493 56.6346C40.1954 56.6346 40.0577 56.667 39.9524 56.7237C39.8472 56.7885 39.758 56.8695 39.6852 56.9666C39.6123 57.0638 39.5637 57.1772 39.5394 57.3068C39.507 57.4364 39.4908 57.566 39.4908 57.6956C39.4908 57.8332 39.507 57.9628 39.5394 58.0924C39.5718 58.222 39.6204 58.3354 39.6933 58.4326C39.7662 58.5298 39.8553 58.6108 39.9687 58.6675C40.082 58.7242 40.2197 58.7566 40.3736 58.7566C40.5275 58.7566 40.6652 58.7242 40.7705 58.6675C40.8758 58.6027 40.9649 58.5217 41.0296 58.4245C41.0944 58.3192 41.143 58.2058 41.1673 58.0762C41.1997 57.9466 41.2078 57.809 41.2078 57.6713C41.2078 57.5417 41.1916 57.4121 41.1592 57.2906H41.1673Z" fill="#00226D"/>
<path d="M44.1791 58.9266C43.9685 59.0886 43.7012 59.1696 43.3853 59.1696C43.1586 59.1696 42.9642 59.1372 42.8022 59.0643C42.6402 58.9914 42.4944 58.8861 42.3892 58.7566C42.2758 58.627 42.1948 58.4731 42.1381 58.2868C42.0814 58.1086 42.049 57.9061 42.0409 57.6956C42.0409 57.485 42.0733 57.2825 42.1381 57.1043C42.2029 56.9261 42.2919 56.7723 42.4134 56.6427C42.5349 56.5131 42.6726 56.4078 42.8346 56.3349C42.9966 56.262 43.1748 56.2296 43.3692 56.2296C43.6202 56.2296 43.8308 56.2782 43.9928 56.3835C44.1548 56.4888 44.2924 56.6184 44.3896 56.7804C44.4868 56.9423 44.5597 57.1124 44.6002 57.3068C44.6407 57.4931 44.6569 57.6713 44.6488 57.8495H42.543C42.543 57.9709 42.5511 58.0924 42.5835 58.1977C42.6159 58.3111 42.6726 58.4083 42.7374 58.4893C42.8103 58.5784 42.8994 58.6432 43.0128 58.6918C43.1262 58.7404 43.2558 58.7647 43.4097 58.7647C43.604 58.7647 43.766 58.7161 43.8875 58.627C44.009 58.5379 44.0981 58.4002 44.1386 58.2139H44.5921C44.5273 58.5298 44.3977 58.7647 44.1871 58.9266H44.1791ZM44.0657 57.1205C44.0252 57.0233 43.9685 56.9342 43.8956 56.8695C43.8227 56.7966 43.7417 56.7399 43.6445 56.6994C43.5473 56.6589 43.442 56.6346 43.3286 56.6346C43.2152 56.6346 43.1019 56.6589 43.0047 56.6994C42.9075 56.7399 42.8265 56.7966 42.7536 56.8695C42.6888 56.9423 42.6321 57.0233 42.5916 57.1205C42.5511 57.2177 42.5268 57.323 42.5187 57.4283H44.1386C44.1386 57.323 44.1062 57.2177 44.0657 57.1205Z" fill="#00226D"/>
<path d="M45.0056 57.1209C45.0623 56.9428 45.1514 56.7889 45.2648 56.6512C45.3782 56.5216 45.524 56.4163 45.694 56.3353C45.8641 56.2624 46.0585 56.2219 46.2853 56.2219C46.512 56.2219 46.7064 56.2624 46.8765 56.3353C47.0466 56.4082 47.1843 56.5135 47.3058 56.6512C47.4192 56.7808 47.5083 56.9428 47.565 57.1209C47.6216 57.2991 47.654 57.4935 47.654 57.7041C47.654 57.9147 47.6216 58.1009 47.565 58.2791C47.5083 58.4573 47.4192 58.6112 47.3058 58.7408C47.1924 58.8704 47.0466 58.9756 46.8765 59.0485C46.7064 59.1214 46.512 59.1619 46.2853 59.1619C46.0585 59.1619 45.8641 59.1214 45.694 59.0485C45.524 58.9756 45.3782 58.8704 45.2648 58.7408C45.1514 58.6112 45.0623 58.4573 45.0056 58.2791C44.9489 58.1009 44.9165 57.9066 44.9165 57.7041C44.9165 57.5016 44.9489 57.3072 45.0056 57.1209ZM45.4753 58.1576C45.5239 58.2872 45.5806 58.4006 45.6616 58.4897C45.7426 58.5788 45.8317 58.6436 45.9451 58.6922C46.0504 58.7408 46.1638 58.7651 46.2853 58.7651C46.4068 58.7651 46.5201 58.7408 46.6254 58.6922C46.7307 58.6436 46.8279 58.5788 46.9089 58.4897C46.9899 58.4006 47.0547 58.2872 47.0952 58.1576C47.1438 58.028 47.16 57.8742 47.16 57.7041C47.16 57.534 47.1357 57.3801 47.0952 57.2505C47.0466 57.1209 46.9899 57.0075 46.9089 56.9185C46.8279 56.8294 46.7388 56.7565 46.6254 56.7079C46.5201 56.6593 46.4068 56.635 46.2853 56.635C46.1638 56.635 46.0504 56.6593 45.9451 56.7079C45.8398 56.7565 45.7426 56.8213 45.6616 56.9185C45.5806 57.0075 45.5158 57.1209 45.4753 57.2505C45.4268 57.3801 45.4105 57.534 45.4105 57.7041C45.4105 57.8742 45.4349 58.028 45.4753 58.1576Z" fill="#00226D"/>
<path d="M48.5935 56.2947V56.6753H48.6016C48.6745 56.5214 48.796 56.408 48.958 56.3352C49.12 56.2623 49.2981 56.2299 49.5006 56.2299C49.7193 56.2299 49.9056 56.2704 50.0676 56.3513C50.2295 56.4323 50.3672 56.5376 50.4725 56.6753C50.5778 56.813 50.6588 56.9669 50.7155 57.1451C50.7722 57.3233 50.7965 57.5095 50.7965 57.712C50.7965 57.9145 50.7722 58.1008 50.7155 58.2789C50.6588 58.4571 50.5859 58.611 50.4725 58.7406C50.3672 58.8702 50.2295 58.9755 50.0676 59.0565C49.9056 59.1294 49.7193 59.1699 49.5006 59.1699C49.4277 59.1699 49.3548 59.1699 49.2657 59.1456C49.1767 59.1294 49.0957 59.1051 49.0147 59.0727C48.9337 59.0403 48.8527 58.9917 48.7798 58.9431C48.7069 58.8864 48.6421 58.8135 48.5935 58.7325H48.5854V60.1823H48.1238V56.2947H48.5854H48.5935ZM50.2539 57.2908C50.2215 57.1694 50.1648 57.056 50.1 56.9588C50.0271 56.8616 49.938 56.7806 49.8246 56.7239C49.7112 56.6672 49.5816 56.6348 49.4358 56.6348C49.282 56.6348 49.1443 56.6672 49.039 56.7239C48.9337 56.7887 48.8446 56.8697 48.7717 56.9669C48.6988 57.0641 48.6502 57.1775 48.6259 57.3071C48.5935 57.4366 48.5773 57.5662 48.5773 57.6958C48.5773 57.8335 48.5935 57.9631 48.6259 58.0927C48.6583 58.2223 48.7069 58.3356 48.7798 58.4328C48.8527 58.53 48.9418 58.611 49.0552 58.6677C49.1685 58.7244 49.3062 58.7568 49.4601 58.7568C49.614 58.7568 49.7517 58.7244 49.857 58.6677C49.9623 58.6029 50.0514 58.5219 50.1161 58.4247C50.1809 58.3194 50.2296 58.2061 50.2539 58.0765C50.2863 57.9469 50.2944 57.8092 50.2944 57.6715C50.2944 57.5419 50.2782 57.4123 50.2458 57.2908H50.2539Z" fill="#00226D"/>
<path d="M51.7527 55.2175V59.1051H51.291V55.2175H51.7527Z" fill="#00226D"/>
<path d="M54.3764 58.9269C54.1658 59.0889 53.8985 59.1699 53.5827 59.1699C53.3559 59.1699 53.1615 59.1375 52.9995 59.0646C52.8375 58.9917 52.6917 58.8864 52.5864 58.7568C52.473 58.6272 52.392 58.4733 52.3353 58.2871C52.2787 58.1089 52.2463 57.9064 52.2382 57.6958C52.2382 57.4852 52.2706 57.2828 52.3353 57.1046C52.4001 56.9264 52.4893 56.7725 52.6107 56.6429C52.7322 56.5133 52.8699 56.408 53.0319 56.3352C53.1939 56.2623 53.3721 56.2299 53.5664 56.2299C53.8175 56.2299 54.0281 56.2785 54.1901 56.3837C54.3521 56.489 54.4898 56.6186 54.5869 56.7806C54.6841 56.9426 54.757 57.1127 54.7975 57.3071C54.838 57.4933 54.8542 57.6715 54.8461 57.8497H52.7403C52.7403 57.9712 52.7484 58.0927 52.7808 58.198C52.8132 58.3113 52.8699 58.4085 52.9347 58.4895C53.0076 58.5786 53.0967 58.6434 53.2101 58.692C53.3235 58.7406 53.453 58.7649 53.6069 58.7649C53.8013 58.7649 53.9633 58.7163 54.0848 58.6272C54.2063 58.5381 54.2954 58.4004 54.3359 58.2142H54.7894C54.7246 58.53 54.595 58.7649 54.3845 58.9269H54.3764ZM54.263 57.1208C54.2225 57.0236 54.1658 56.9345 54.0929 56.8697C54.02 56.7968 53.939 56.7401 53.8418 56.6996C53.7446 56.6591 53.6393 56.6348 53.526 56.6348C53.4126 56.6348 53.2992 56.6591 53.202 56.6996C53.1048 56.7401 53.0238 56.7968 52.9509 56.8697C52.878 56.9426 52.8294 57.0236 52.7889 57.1208C52.7484 57.218 52.7241 57.3233 52.716 57.4285H54.3359C54.3359 57.3233 54.3035 57.218 54.263 57.1208Z" fill="#00226D"/>
</svg>
